<svg xmlns="http://www.w3.org/2000/svg" height="1200" width="1600" version="1.1" xmlns:xlink="http://www.w3.org/1999/xlink" xmlns:svgjs="http://svgjs.com/svgjs"><rect fill="#effaff" width="1600" height="1200"></rect><g><path d="M1157.68 296.36C1081.65 234.67 980.23 227.11 883.29 227.72 789.64 228.33 695.34 239.97 604.33 262.04 540.8 277.41 471.34 296.53 425.42 343.79 378.87 391.4 352.67 455 345.73 519.12 337.98 589.58 352.12 661.17 377.32 727.64 399.68 786.54 431.81 843.71 479.01 888.19 540.89 946.75 618.39 963.52 702.19 969.34 791.37 975.42 883.75 974.64 968.18 943.19 1083.38 900.44 1155.31 807.22 1207.52 704.44 1239.93 640.49 1259.83 569.68 1255.9 498.79 1251.98 427.98 1223.5 357 1170.19 307.22 1166.08 303.57 1161.79 299.92 1157.68 296.36Z" fill="#deeff7" opacity="1" stroke-width="2" stroke="none"></path></g><g><path d="M1058.13 807.78V736.96C1058.13 702.55 1028.12 674.68 990.88 674.68H587.96C550.73 674.68 520.71 702.55 520.71 736.96V866.06H1058.42V819.78" fill="#3d84a8" opacity="1" stroke-width="2" stroke="none"></path><path d="M1058.13 807.78V736.96C1058.13 702.55 1028.12 674.68 990.88 674.68H587.96C550.73 674.68 520.71 702.55 520.71 736.96V866.06H1058.42V819.78" stroke="#333333" stroke-width="2" stroke-linecap="round" stroke-linejoin="round" opacity="1" fill="none"></path><path d="M1077.47 846.06H501.38V868.86H1077.47V846.06Z" fill="#3d84a8" stroke="#333333" stroke-width="2" stroke-linecap="round" stroke-linejoin="round" opacity="1"></path><path d="M561.12 868.86L501.38 1012.23" stroke="#333333" stroke-width="2" stroke-linecap="round" stroke-linejoin="round" opacity="1" fill="none"></path><path d="M1017.44 868.86L1077.47 1012.23" stroke="#333333" stroke-width="2" stroke-linecap="round" stroke-linejoin="round" opacity="1" fill="none"></path><path d="M696.05 674.81V826.85" stroke="#333333" stroke-width="2" stroke-linecap="round" stroke-linejoin="round" opacity="1" fill="none"></path><path d="M882.79 705.62V846.06" stroke="#333333" stroke-width="2" stroke-linecap="round" stroke-linejoin="round" opacity="1" fill="none"></path><path d="M882.79 674.81V695.62" stroke="#333333" stroke-width="2" stroke-linecap="round" stroke-linejoin="round" opacity="1" fill="none"></path></g><g><path d="M448.17 1014L110.48 1014" stroke="#333333" stroke-width="2" stroke-linecap="round" stroke-linejoin="round" opacity="1" fill="none"></path><path d="M1489.52 1014L521.08 1014" stroke="#333333" stroke-width="2" stroke-linecap="round" stroke-linejoin="round" opacity="1" fill="none"></path></g><g><path d="M1465.5 491.63V646.78H1098.11V422.78L1109.69 402.66H1447.67L1465.5 422.78V470.84" fill="#abedd8" opacity="1" stroke-width="2" stroke="none"></path><path d="M1465.5 491.63V646.78H1098.11V422.78L1109.69 402.66H1447.67L1465.5 422.78V470.84" stroke="#333333" stroke-width="2" stroke-linecap="round" stroke-linejoin="round" opacity="1" fill="none"></path><path d="M1419.2 382.37H1098.11V422.78H1419.2V382.37Z" fill="#46cdcf" stroke="#333333" stroke-width="2" stroke-linecap="round" stroke-linejoin="round" opacity="1"></path><path d="M1465.5 382.37H1419.39V422.78H1465.5V382.37Z" fill="#46cdcf" stroke="#333333" stroke-width="2" stroke-linecap="round" stroke-linejoin="round" opacity="1"></path><path d="M1123.54 442.07H1161.69" stroke="#333333" stroke-width="2" stroke-linecap="round" stroke-linejoin="round" opacity="1" fill="none"></path><path d="M1123.54 460.53H1161.69" stroke="#333333" stroke-width="2" stroke-linecap="round" stroke-linejoin="round" opacity="1" fill="none"></path><path d="M1123.54 478.99H1161.69" stroke="#333333" stroke-width="2" stroke-linecap="round" stroke-linejoin="round" opacity="1" fill="none"></path><path d="M1281.81 646.78V764.19" stroke="#333333" stroke-width="2" stroke-linecap="round" stroke-linejoin="round" opacity="1" fill="none"></path></g><g><path d="M865.4 856.99H733.99C713.29 856.99 696.45 840.32 696.45 819.44V745.93H902.6V819.44C902.78 840.32 885.93 856.99 865.4 856.99Z" fill="#48466d" stroke="#333333" stroke-width="2" stroke-linecap="round" stroke-linejoin="round" opacity="1"></path><path d="M745.22 571.18H742.59C701.18 571.18 667.85 604.69 667.85 645.92V731.9C667.85 745.58 678.73 756.46 692.41 756.46H906.46C920.32 756.46 931.55 745.23 931.55 731.54V645.4C931.55 604.34 898.21 571.01 857.16 571.01H854" fill="#ffffff" opacity="1" stroke-width="2" stroke="none"></path><path d="M745.22 571.18H742.59C701.18 571.18 667.85 604.69 667.85 645.92V731.9C667.85 745.58 678.73 756.46 692.41 756.46H906.46C920.32 756.46 931.55 745.23 931.55 731.54V645.4C931.55 604.34 898.21 571.01 857.16 571.01H854" stroke="#333333" stroke-width="2" stroke-linecap="round" stroke-linejoin="round" opacity="1" fill="none"></path><path d="M745.75 810.5L748.91 813.65C749.26 814.01 854.53 919.28 855.93 920.68 834.35 942.26 812.59 964.02 791.01 985.6L641.88 836.46C623.81 818.57 623.81 789.27 641.88 771.55 659.78 753.65 689.08 753.65 706.8 771.55 707.5 772.25 708.38 773.13 709.08 773.83" fill="#48466d" opacity="1" stroke-width="2" stroke="none"></path><path d="M745.75 810.5L748.91 813.65C749.26 814.01 854.53 919.28 855.93 920.68 834.35 942.26 812.59 964.02 791.01 985.6L641.88 836.46C623.81 818.57 623.81 789.27 641.88 771.55 659.78 753.65 689.08 753.65 706.8 771.55 707.5 772.25 708.38 773.13 709.08 773.83" stroke="#333333" stroke-width="2" stroke-linecap="round" stroke-linejoin="round" opacity="1" fill="none"></path><path d="M719.78 659.61V631.36" stroke="#333333" stroke-width="2" stroke-linecap="round" stroke-linejoin="round" opacity="1" fill="none"></path><path d="M879.62 659.61V631.36" stroke="#333333" stroke-width="2" stroke-linecap="round" stroke-linejoin="round" opacity="1" fill="none"></path><path d="M840.49 579.6L842.77 560.66 797.86 555.22 753.29 560.13 757.33 579.43C757.33 586.27 752.94 592.06 746.8 594.17 753.12 617.68 774.7 634.7 799.96 634.7 825.23 634.7 846.46 617.85 852.95 594.52 845.75 593.29 840.49 586.97 840.49 579.6Z" fill="#ffffff" stroke="#333333" stroke-width="2" stroke-linecap="round" stroke-linejoin="round" opacity="1"></path><path d="M852.25 563.11C835.75 512.23 763.64 512.23 747.33 563.11 743.99 572.94 743.82 584.34 746.63 594.17 752.77 592.06 757.15 586.27 757.15 579.43V562.94H840.49V579.43C840.49 586.8 845.75 593.29 852.77 594.87 855.58 584.69 855.4 572.94 852.25 563.11Z" fill="#48466d" stroke="#333333" stroke-width="2" stroke-linecap="round" stroke-linejoin="round" opacity="1"></path><path d="M788.38 581.36V605.04" stroke="#333333" stroke-width="2" stroke-linecap="round" stroke-linejoin="round" opacity="1" fill="none"></path><path d="M803.3 605.04C803.3 609.26 799.96 612.41 795.75 612.41 791.54 612.41 788.38 609.08 788.38 605.04" stroke="#333333" stroke-width="2" stroke-linecap="round" stroke-linejoin="round" opacity="1" fill="none"></path><path d="M882.6 830.15C882.6 831.2 882.6 832.25 882.6 833.13 882.6 893.66 882.6 954.19 882.6 1014.72 872.07 1014.72 861.72 1014.72 851.19 1014.72H790.66V803.83C790.66 788.92 797.86 775.58 809.09 767.16 812.95 764 817.68 761.9 822.42 760.14" fill="#48466d" opacity="1" stroke-width="2" stroke="none"></path><path d="M882.6 830.15C882.6 831.2 882.6 832.25 882.6 833.13 882.6 893.66 882.6 954.19 882.6 1014.72 872.07 1014.72 861.72 1014.72 851.19 1014.72H790.66V803.83C790.66 788.92 797.86 775.58 809.09 767.16 812.95 764 817.68 761.9 822.42 760.14" stroke="#333333" stroke-width="2" stroke-linecap="round" stroke-linejoin="round" opacity="1" fill="none"></path><path d="M845.58 758.74C856.11 760.84 865.4 766.46 872.07 774.53 873.48 776.28 881.2 785.76 882.6 799.79 882.77 801.55 882.77 802.95 882.77 804" fill="#48466d" opacity="1" stroke-width="2" stroke="none"></path><path d="M845.58 758.74C856.11 760.84 865.4 766.46 872.07 774.53 873.48 776.28 881.2 785.76 882.6 799.79 882.77 801.55 882.77 802.95 882.77 804" stroke="#333333" stroke-width="2" stroke-linecap="round" stroke-linejoin="round" opacity="1" fill="none"></path><path d="M719.78 631.36V701.19H879.62V631.36" stroke="#333333" stroke-width="2" stroke-linecap="round" stroke-linejoin="round" opacity="1" fill="none"></path><path d="M795.75 701.19V756.46" stroke="#333333" stroke-width="2" stroke-linecap="round" stroke-linejoin="round" opacity="1" fill="none"></path><path d="M882.6 756.81H716.62L696.97 659.61H902.42L882.6 756.81Z" fill="#78c7e0" stroke="#333333" stroke-width="2" stroke-linecap="round" stroke-linejoin="round" opacity="1"></path><path d="M799.79 723.12C808.12 723.12 814.88 716.37 814.88 708.03 814.88 699.7 808.12 692.95 799.79 692.95 791.45 692.95 784.7 699.7 784.7 708.03 784.7 716.37 791.45 723.12 799.79 723.12Z" fill="#46cdcf" stroke="#333333" stroke-width="2" stroke-linecap="round" stroke-linejoin="round" opacity="1"></path></g><g><path d="M1351.71 951.29L1377.76 1012.35" stroke="#333333" stroke-width="2" stroke-linecap="round" stroke-linejoin="round" opacity="1" fill="none"></path><path d="M1305.19 843.56L1343.33 932.13" stroke="#333333" stroke-width="2" stroke-linecap="round" stroke-linejoin="round" opacity="1" fill="none"></path><path d="M1217.03 843.56L1144.46 1012.35" stroke="#333333" stroke-width="2" stroke-linecap="round" stroke-linejoin="round" opacity="1" fill="none"></path><path d="M1369.38 819.25H1152.37V843.56H1369.38V819.25Z" fill="#48466d" stroke="#333333" stroke-width="2" stroke-linecap="round" stroke-linejoin="round" opacity="1"></path><path d="M1261.23 843.56V1012.35" stroke="#333333" stroke-width="2" stroke-linecap="round" stroke-linejoin="round" opacity="1" fill="none"></path></g><g><path d="M1258.7 713.8H1400.39L1352.05 814.16H1210.47L1258.7 713.8Z" fill="#78c7e0" stroke="#333333" stroke-width="2" stroke-linecap="round" stroke-linejoin="round" opacity="1"></path><path d="M1356.53 804.97H1166.37V818.75H1356.53V804.97Z" fill="#78c7e0" stroke="#333333" stroke-width="2" stroke-linecap="round" stroke-linejoin="round" opacity="1"></path><path d="M1307.61 767.77C1312.24 767.77 1315.99 764.02 1315.99 759.39 1315.99 754.76 1312.24 751.01 1307.61 751.01 1302.98 751.01 1299.23 754.76 1299.23 759.39 1299.23 764.02 1302.98 767.77 1307.61 767.77Z" fill="#46cdcf" stroke="#333333" stroke-width="2" stroke-linecap="round" stroke-linejoin="round" opacity="1"></path></g><g><path d="M263.5 940.87C264.21 935.33 265.74 929.79 267.98 924.6L270.93 918.47C273.76 913.4 277.3 908.57 281.66 904.2 306.66 879.21 347.22 879.21 372.22 904.2 397.21 929.2 397.21 969.76 372.22 994.76 347.22 1019.76 306.66 1019.76 281.66 994.76 268.93 982.02 262.68 965.28 262.91 948.54" fill="#3d84a8" opacity="1" stroke-width="2" stroke="none"></path><path d="M263.5 940.87C264.21 935.33 265.74 929.79 267.98 924.6L270.93 918.47C273.76 913.4 277.3 908.57 281.66 904.2 306.66 879.21 347.22 879.21 372.22 904.2 397.21 929.2 397.21 969.76 372.22 994.76 347.22 1019.76 306.66 1019.76 281.66 994.76 268.93 982.02 262.68 965.28 262.91 948.54" stroke="#333333" stroke-width="2" stroke-linecap="round" stroke-linejoin="round" opacity="1" fill="none"></path><path d="M390.38 941.23C375.16 946.18 357.83 942.64 345.81 930.5 333.78 918.47 330.24 901.14 335.08 885.93" stroke="#333333" stroke-width="2" stroke-linecap="round" stroke-linejoin="round" opacity="1" fill="none"></path><path d="M263.37 957.73C278.58 952.78 295.92 956.32 307.94 968.46 319.97 980.49 323.51 997.82 318.67 1013.03" stroke="#333333" stroke-width="2" stroke-linecap="round" stroke-linejoin="round" opacity="1" fill="none"></path><path d="M353.47 976.01L372.22 994.76" stroke="#333333" stroke-width="2" stroke-linecap="round" stroke-linejoin="round" opacity="1" fill="none"></path><path d="M281.65 904.2L347.68 970.35" stroke="#333333" stroke-width="2" stroke-linecap="round" stroke-linejoin="round" opacity="1" fill="none"></path><path d="M372.21 904.2L281.65 994.76" stroke="#333333" stroke-width="2" stroke-linecap="round" stroke-linejoin="round" opacity="1" fill="none"></path></g><g><path d="M1281.81 463.51C1307.9 463.51 1329.03 483.99 1329.03 510.73 1329.03 553.86 1281.81 598.49 1281.81 598.49 1281.81 598.49 1234.59 554.07 1234.59 510.73 1234.59 484.21 1255.72 463.51 1281.81 463.51Z" fill="#46cdcf" stroke="#333333" stroke-width="2" stroke-linecap="round" stroke-linejoin="round" opacity="1"></path><path d="M1281.81 534.45C1295.63 534.45 1306.82 523.26 1306.82 509.44 1306.82 495.62 1295.63 484.42 1281.81 484.42 1267.99 484.42 1256.8 495.62 1256.8 509.44 1256.8 523.26 1267.99 534.45 1281.81 534.45Z" fill="#78c7e0" stroke="#333333" stroke-width="2" stroke-linecap="round" stroke-linejoin="round" opacity="1"></path></g></svg>