<svg xmlns="http://www.w3.org/2000/svg" height="1200" width="1600" version="1.1" xmlns:xlink="http://www.w3.org/1999/xlink" xmlns:svgjs="http://svgjs.com/svgjs"><rect fill="#effaff" width="1600" height="1200"></rect><g><path d="M1329.62 465.4C1309.28 441.73 1286.42 419.51 1262.54 399 1136.59 289.7 976.24 218.44 791.61 230.7 641.88 240.66 478.49 288.84 353.15 358.39 265.23 407.26 197.86 478.93 193.3 570.7 189.56 644.08 223.45 716.78 277.47 774.49 344.35 845.74 444.6 900.05 543.55 934.1 594.03 951.47 648.56 963.73 703.09 968.16 866.88 981.44 1034.31 940.66 1180.29 880.65 1308.47 828.04 1426.84 742.57 1404.18 610.03 1395.18 556.57 1366.75 508.56 1329.62 465.4Z" fill="#deeff7" opacity="1" stroke-width="2" stroke="none"></path></g><g><path d="M526.63 169.93C534.57 182.05 539.18 196.52 539.18 212.07 539.18 254.74 504.55 289.37 461.87 289.37 419.2 289.37 384.57 254.74 384.57 212.07 384.57 169.4 419.2 134.76 461.87 134.76 484.39 134.76 504.76 144.41 518.81 159.85" fill="#3d84a8" opacity="1" stroke-width="2" stroke="none"></path><path d="M526.63 169.93C534.57 182.05 539.18 196.52 539.18 212.07 539.18 254.74 504.55 289.37 461.87 289.37 419.2 289.37 384.57 254.74 384.57 212.07 384.57 169.4 419.2 134.76 461.87 134.76 484.39 134.76 504.76 144.41 518.81 159.85" stroke="#333333" stroke-width="2" stroke-linecap="round" stroke-linejoin="round" opacity="1" fill="none"></path><path d="M461.87 289.37V353.27C461.87 370.75 476.03 384.9 493.5 384.9" stroke="#333333" stroke-width="2" stroke-linecap="round" stroke-linejoin="round" opacity="1" fill="none"></path><path d="M509.05 212.07L487.71 219.04 502.72 235.66 480.85 231.05 485.46 252.92 468.84 237.91 461.87 259.24 455.01 237.91 438.29 252.92 443 231.05 421.02 235.66 436.03 219.04 414.7 212.07 436.03 205.21 421.02 188.48 443 193.2 438.29 171.22 455.01 186.23 461.87 164.89 468.84 186.23 485.46 171.22 480.85 193.2 502.72 188.48 487.71 205.21 509.05 212.07Z" fill="#3d84a8" stroke="#333333" stroke-width="2" stroke-linecap="round" stroke-linejoin="round" opacity="1"></path></g><g><path d="M800.81 1003.41C1023.57 1003.41 1204.17 822.81 1204.17 600.05 1204.17 377.24 1023.57 196.7 800.81 196.7 578 196.7 397.46 377.24 397.46 600.05 397.46 822.81 578 1003.41 800.81 1003.41Z" fill="#abedd8" stroke="#333333" stroke-width="2" stroke-linecap="round" stroke-linejoin="round" opacity="1"></path><path d="M800.81 1003.41V196.7" stroke="#333333" stroke-width="2" stroke-linecap="round" stroke-linejoin="round" opacity="1" fill="none"></path><path d="M919.13 214.44C982.59 294.58 1025.08 436.56 1025.08 600.05 1025.08 763.55 982.59 905.53 919.13 985.66" stroke="#333333" stroke-width="2" stroke-linecap="round" stroke-linejoin="round" opacity="1" fill="none"></path><path d="M681.96 985.66C618.5 905.53 576.01 763.55 576.01 600.05 576.01 436.56 618.5 294.58 681.96 214.44" stroke="#333333" stroke-width="2" stroke-linecap="round" stroke-linejoin="round" opacity="1" fill="none"></path><path d="M1081.55 311.25C1023.47 374.17 919.13 415.58 800.27 415.58 681.42 415.58 577.08 374.17 519 311.25" stroke="#333333" stroke-width="2" stroke-linecap="round" stroke-linejoin="round" opacity="1" fill="none"></path><path d="M519.54 888.86C577.62 825.93 681.96 784.52 800.81 784.52 896 784.52 980.98 811.41 1040.68 853.9 1056.27 865.19 1069.18 877.02 1081.01 888.86" stroke="#333333" stroke-width="2" stroke-linecap="round" stroke-linejoin="round" opacity="1" fill="none"></path><path d="M539.97 600.05H1203.09" stroke="#333333" stroke-width="2" stroke-linecap="round" stroke-linejoin="round" opacity="1" fill="none"></path><path d="M397.46 600.05H481.35" stroke="#333333" stroke-width="2" stroke-linecap="round" stroke-linejoin="round" opacity="1" fill="none"></path><path d="M1125.65 558.64C1082.09 625.33 1026.69 693.63 960.54 759.78 741.65 978.67 492.65 1084.62 403.91 995.88 354.97 946.94 365.19 850.13 420.58 736.66" stroke="#333333" stroke-width="2" stroke-linecap="round" stroke-linejoin="round" opacity="1" fill="none"></path><path d="M1221.38 246.71C1240.74 310.17 1213.85 407.52 1153.08 514.54" stroke="#333333" stroke-width="2" stroke-linecap="round" stroke-linejoin="round" opacity="1" fill="none"></path><path d="M937.42 220.9C1050.89 165.5 1148.77 155.28 1196.64 204.23" stroke="#333333" stroke-width="2" stroke-linecap="round" stroke-linejoin="round" opacity="1" fill="none"></path></g><g><path d="M624.25 677.7V612.88" stroke="#333333" stroke-width="2" stroke-linecap="round" stroke-linejoin="round" opacity="1" fill="none"></path><path d="M624.25 570.5V423.83H975.75V776.17H624.25V718" fill="#46cdcf" opacity="1" stroke-width="2" stroke="none"></path><path d="M624.25 570.5V423.83H975.75V776.17H624.25V718" stroke="#333333" stroke-width="2" stroke-linecap="round" stroke-linejoin="round" opacity="1" fill="none"></path></g><g><path d="M772.1 697.06L752.22 664.47 717.56 680.53 751.27 569.39 805.64 585.77 772.1 697.06Z" fill="#ffffff" stroke="#333333" stroke-width="2" stroke-linecap="round" stroke-linejoin="round" opacity="1"></path><path d="M863.68 618.36L848.73 569.39 794.36 585.77 827.9 697.06 847.94 664.47 882.44 680.53 873.37 650.48" fill="#ffffff" opacity="1" stroke-width="2" stroke="none"></path><path d="M863.68 618.36L848.73 569.39 794.36 585.77 827.9 697.06 847.94 664.47 882.44 680.53 873.37 650.48" stroke="#333333" stroke-width="2" stroke-linecap="round" stroke-linejoin="round" opacity="1" fill="none"></path><path d="M800.08 606.6C828.7 606.6 851.91 583.39 851.91 554.77 851.91 526.15 828.7 502.94 800.08 502.94 771.45 502.94 748.25 526.15 748.25 554.77 748.25 583.39 771.45 606.6 800.08 606.6Z" fill="#ffffff" stroke="#333333" stroke-width="2" stroke-linecap="round" stroke-linejoin="round" opacity="1"></path><path d="M870.67 641.42L866.38 627.58" stroke="#333333" stroke-width="2" stroke-linecap="round" stroke-linejoin="round" opacity="1" fill="none"></path><path d="M800.08 525.19C816.46 525.19 829.65 538.39 829.65 554.77 829.65 571.14 816.46 584.34 800.08 584.34 792.92 584.34 786.25 581.8 781.16 577.5" fill="#ffffff" opacity="1" stroke-width="2" stroke="none"></path><path d="M800.08 525.19C816.46 525.19 829.65 538.39 829.65 554.77 829.65 571.14 816.46 584.34 800.08 584.34 792.92 584.34 786.25 581.8 781.16 577.5" stroke="#333333" stroke-width="2" stroke-linecap="round" stroke-linejoin="round" opacity="1" fill="none"></path><path d="M770.35 554.77C770.35 544.91 775.12 536.17 782.59 530.76" stroke="#333333" stroke-width="2" stroke-linecap="round" stroke-linejoin="round" opacity="1" fill="none"></path></g></svg>