<svg xmlns="http://www.w3.org/2000/svg" height="1200" width="1600" version="1.1" xmlns:xlink="http://www.w3.org/1999/xlink" xmlns:svgjs="http://svgjs.com/svgjs"><rect fill="#effaff" width="1600" height="1200"></rect><g><path d="M136.86 969.06L1463.14 968.05" stroke="#333333" stroke-width="2" stroke-linecap="round" stroke-linejoin="round" opacity="1" fill="none"></path></g><g><path d="M582.9 272.3C582.9 272.2 582.9 272.2 583 272.2H708C708.1 272.2 708.1 272.2 708.1 272.3V321.6C708.1 321.7 708.1 321.7 708 321.7H583C582.9 321.7 582.9 321.7 582.9 321.6V272.3Z" fill="#54c4c9" stroke="#333333" stroke-width="2" stroke-linecap="round" stroke-linejoin="round" opacity="1"></path><path d="M619.6 288.1V305.8" stroke="#333333" stroke-width="2" stroke-linecap="round" stroke-linejoin="round" opacity="1" fill="none"></path><path d="M628.4 297H610.7" stroke="#333333" stroke-width="2" stroke-linecap="round" stroke-linejoin="round" opacity="1" fill="none"></path><path d="M641.1 288.1V305.8" stroke="#333333" stroke-width="2" stroke-linecap="round" stroke-linejoin="round" opacity="1" fill="none"></path><path d="M653.8 305.8C650.7 305.8 648.2 303.3 648.2 300.2V293.7C648.2 290.6 650.7 288.1 653.8 288.1 656.9 288.1 659.4 290.6 659.4 293.7V300.2C659.4 303.3 656.9 305.8 653.8 305.8Z" stroke="#333333" stroke-width="2" stroke-linecap="round" stroke-linejoin="round" opacity="1" fill="none"></path><path d="M669.4 305.8L680.2 288.1" stroke="#333333" stroke-width="2" stroke-linecap="round" stroke-linejoin="round" opacity="1" fill="none"></path><path d="M671.3 291.9C672.35 291.9 673.2 291.05 673.2 290 673.2 288.95 672.35 288.1 671.3 288.1 670.25 288.1 669.4 288.95 669.4 290 669.4 291.05 670.25 291.9 671.3 291.9Z" stroke="#333333" stroke-width="2" stroke-linecap="round" stroke-linejoin="round" opacity="1" fill="none"></path><path d="M678.3 305.9C679.35 305.9 680.2 305.05 680.2 304 680.2 302.95 679.35 302.1 678.3 302.1 677.25 302.1 676.4 302.95 676.4 304 676.4 305.05 677.25 305.9 678.3 305.9Z" stroke="#333333" stroke-width="2" stroke-linecap="round" stroke-linejoin="round" opacity="1" fill="none"></path></g><g><path d="M1159.45 968.76C1159.45 898.04 1203.18 840.5 1257.3 840.5 1311.17 840.5 1355.14 898.04 1355.14 968.76H1159.45Z" fill="#abedd8" stroke="#333333" stroke-width="2" stroke-linecap="round" stroke-linejoin="round" opacity="1"></path><path d="M1376.16 968.76H1138.19" stroke="#333333" stroke-width="2" stroke-linecap="round" stroke-linejoin="round" opacity="1" fill="none"></path><path d="M1334.85 790.57C1317.21 820.98 1288.95 840.75 1257.3 840.75 1203.18 840.75 1159.45 783.47 1159.45 712.75H1355.14C1355.14 729.48 1352.49 745.45 1348.14 760.4" fill="#abedd8" opacity="1" stroke-width="2" stroke="none"></path><path d="M1334.85 790.57C1317.21 820.98 1288.95 840.75 1257.3 840.75 1203.18 840.75 1159.45 783.47 1159.45 712.75H1355.14C1355.14 729.48 1352.49 745.45 1348.14 760.4" stroke="#333333" stroke-width="2" stroke-linecap="round" stroke-linejoin="round" opacity="1" fill="none"></path><path d="M1138.19 712.5H1376.16" stroke="#333333" stroke-width="2" stroke-linecap="round" stroke-linejoin="round" opacity="1" fill="none"></path><path d="M1354.9 968.76C1354.9 933.02 1343.79 900.57 1325.91 877.51 1296.68 896.77 1264.79 880.04 1247.39 870.66 1216.95 853.43 1194.49 870.92 1193.04 872.69 1172.74 896.26 1159.7 930.48 1159.7 969.01L1354.9 968.76Z" fill="#54c4c9" stroke="#333333" stroke-width="2" stroke-linecap="round" stroke-linejoin="round" opacity="1"></path></g><g><path d="M1128.95 485.4C1199.19 485.4 1256.15 428.44 1256.15 358.2 1256.15 287.96 1199.19 231 1128.95 231 1058.71 231 1001.75 287.96 1001.75 358.2 1001.75 428.44 1058.71 485.4 1128.95 485.4Z" fill="#abedd8" stroke="#333333" stroke-width="2" stroke-linecap="round" stroke-linejoin="round" opacity="1"></path><path d="M1128.95 231V358.2H1001.75" stroke="#333333" stroke-width="2" stroke-linecap="round" stroke-linejoin="round" opacity="1" fill="none"></path><path d="M1175.33 239.68L1128.95 358.2 1218.72 268.16" stroke="#333333" stroke-width="2" stroke-linecap="round" stroke-linejoin="round" opacity="1" fill="none"></path></g><g><path d="M468.35 493.13V599.81C468.35 599.9 468.35 599.9 468.26 599.9H208.54C208.45 599.9 208.45 599.9 208.45 599.81V304.89C208.45 304.8 208.45 304.8 208.54 304.8H468.26C468.35 304.8 468.35 304.8 468.35 304.89V474.41" fill="#78c7e0" opacity="1" stroke-width="2" stroke="none"></path><path d="M468.35 493.13V599.81C468.35 599.9 468.35 599.9 468.26 599.9H208.54C208.45 599.9 208.45 599.9 208.45 599.81V304.89C208.45 304.8 208.45 304.8 208.54 304.8H468.26C468.35 304.8 468.35 304.8 468.35 304.89V474.41" stroke="#333333" stroke-width="2" stroke-linecap="round" stroke-linejoin="round" opacity="1" fill="none"></path><path d="M360.59 469.81L348.26 488.72C348.26 488.72 348.17 488.81 348.17 488.72L306.4 461.53 264.45 525.9V525.99L281.82 538.59C281.82 538.59 281.82 538.59 281.91 538.59H282L312.7 491.6C312.7 491.6 312.7 491.6 312.79 491.6H312.88L354.56 518.79 396.51 454.51C396.51 454.51 396.6 454.42 396.6 454.51L412.36 464.77H412.45V464.68L403.89 423.54C403.89 423.45 403.8 423.45 403.8 423.45L362.57 432C362.57 432 362.48 432 362.48 432.09 362.48 432.18 362.48 432.18 362.48 432.18L378.24 442.54C378.24 442.54 378.33 442.63 378.24 442.63L363.92 464.59" fill="#abedd8" opacity="1" stroke-width="2" stroke="none"></path><path d="M360.59 469.81L348.26 488.72C348.26 488.72 348.17 488.81 348.17 488.72L306.4 461.53 264.45 525.9V525.99L281.82 538.59C281.82 538.59 281.82 538.59 281.91 538.59H282L312.7 491.6C312.7 491.6 312.7 491.6 312.79 491.6H312.88L354.56 518.79 396.51 454.51C396.51 454.51 396.6 454.42 396.6 454.51L412.36 464.77H412.45V464.68L403.89 423.54C403.89 423.45 403.8 423.45 403.8 423.45L362.57 432C362.57 432 362.48 432 362.48 432.09 362.48 432.18 362.48 432.18 362.48 432.18L378.24 442.54C378.24 442.54 378.33 442.63 378.24 442.63L363.92 464.59" stroke="#333333" stroke-width="2" stroke-linecap="round" stroke-linejoin="round" opacity="1" fill="none"></path><path d="M264.27 366.02V395.72" stroke="#333333" stroke-width="2" stroke-linecap="round" stroke-linejoin="round" opacity="1" fill="none"></path><path d="M288.93 366.02V395.72" stroke="#333333" stroke-width="2" stroke-linecap="round" stroke-linejoin="round" opacity="1" fill="none"></path><path d="M313.69 366.02V395.72" stroke="#333333" stroke-width="2" stroke-linecap="round" stroke-linejoin="round" opacity="1" fill="none"></path><path d="M363.11 366.02V395.72" stroke="#333333" stroke-width="2" stroke-linecap="round" stroke-linejoin="round" opacity="1" fill="none"></path><path d="M412.45 366.02V395.72" stroke="#333333" stroke-width="2" stroke-linecap="round" stroke-linejoin="round" opacity="1" fill="none"></path><path d="M264.27 380.87H412.45" stroke="#333333" stroke-width="2" stroke-linecap="round" stroke-linejoin="round" opacity="1" fill="none"></path></g><g><path d="M327.3 690.6L314.4 652.8 314.3 652.7H180 179.9V652.8L235.1 816.1 235.2 816.2H369.5 369.6V816.1L330.7 700.9" fill="#abedd8" opacity="1" stroke-width="2" stroke="none"></path><path d="M327.3 690.6L314.4 652.8 314.3 652.7H180 179.9V652.8L235.1 816.1 235.2 816.2H369.5 369.6V816.1L330.7 700.9" stroke="#333333" stroke-width="2" stroke-linecap="round" stroke-linejoin="round" opacity="1" fill="none"></path><path d="M413 830.8H230.5C230.4 830.8 230.4 830.8 230.4 830.7V801.7C230.4 801.6 230.4 801.6 230.5 801.6H413C421.1 801.6 427.6 808.1 427.6 816.2 427.6 824.2 421.1 830.8 413 830.8Z" fill="#abedd8" stroke="#333333" stroke-width="2" stroke-linecap="round" stroke-linejoin="round" opacity="1"></path><path d="M188.6 945.1L179.9 969" stroke="#333333" stroke-width="2" stroke-linecap="round" stroke-linejoin="round" opacity="1" fill="none"></path><path d="M198.3 918.7L191.6 937" stroke="#333333" stroke-width="2" stroke-linecap="round" stroke-linejoin="round" opacity="1" fill="none"></path><path d="M230.4 830.8L200.8 911.9" stroke="#333333" stroke-width="2" stroke-linecap="round" stroke-linejoin="round" opacity="1" fill="none"></path><path d="M364.6 830.8L314.1 969" stroke="#333333" stroke-width="2" stroke-linecap="round" stroke-linejoin="round" opacity="1" fill="none"></path><path d="M381.5 830.8L432 969" stroke="#333333" stroke-width="2" stroke-linecap="round" stroke-linejoin="round" opacity="1" fill="none"></path><path d="M247.4 830.8L297.9 969" stroke="#333333" stroke-width="2" stroke-linecap="round" stroke-linejoin="round" opacity="1" fill="none"></path></g><g><path d="M1054.7 348H580.09V732.13L853.41 737.97 1126.51 732.13V348H1075.25" fill="#78c7e0" opacity="1" stroke-width="2" stroke="none"></path><path d="M1054.7 348H580.09V732.13L853.41 737.97 1126.51 732.13V348H1075.25" stroke="#333333" stroke-width="2" stroke-linecap="round" stroke-linejoin="round" opacity="1" fill="none"></path><path d="M1126.51 732.13H580.09V784.93H1126.51V732.13Z" fill="#3d84a8" stroke="#333333" stroke-width="2" stroke-linecap="round" stroke-linejoin="round" opacity="1"></path><path d="M945.11 914.92H757.08C731.23 914.92 710.01 939.04 710.01 969H991.95C992.17 939.04 971.18 914.92 945.11 914.92Z" fill="#3d84a8" stroke="#333333" stroke-width="2" stroke-linecap="round" stroke-linejoin="round" opacity="1"></path><path d="M853.41 914.92V784.93" stroke="#333333" stroke-width="2" stroke-linecap="round" stroke-linejoin="round" opacity="1" fill="none"></path></g><g><path d="M661.6 605.35L714.79 537.9 727.27 550.62 757.51 515.03 767.48 526.79 776.56 504.41 793.26 530.36 796.99 486.66 805.26 511.22 833.31 479.69 883.74 565.87 909.6 545.76 921.68 564.49 937.41 553.54 957.68 591 980.94 535.79" stroke="#333333" stroke-width="2" stroke-linecap="round" stroke-linejoin="round" opacity="1" fill="none"></path><path d="M634.69 646.86H1074.83" stroke="#333333" stroke-width="2" stroke-linecap="round" stroke-linejoin="round" opacity="1" fill="none"></path><path d="M1007.94 695.5V426.75" stroke="#333333" stroke-width="2" stroke-linecap="round" stroke-linejoin="round" opacity="1" fill="none"></path><path d="M1042.32 658.94V683.42" stroke="#333333" stroke-width="2" stroke-linecap="round" stroke-linejoin="round" opacity="1" fill="none"></path><path d="M1054.56 671.18H1030.07" stroke="#333333" stroke-width="2" stroke-linecap="round" stroke-linejoin="round" opacity="1" fill="none"></path><path d="M1016.7 621.24H1033.15" stroke="#333333" stroke-width="2" stroke-linecap="round" stroke-linejoin="round" opacity="1" fill="none"></path><path d="M1016.7 597.16H1033.15" stroke="#333333" stroke-width="2" stroke-linecap="round" stroke-linejoin="round" opacity="1" fill="none"></path><path d="M1016.7 573H1026.34" stroke="#333333" stroke-width="2" stroke-linecap="round" stroke-linejoin="round" opacity="1" fill="none"></path><path d="M1016.7 548.92H1033.15" stroke="#333333" stroke-width="2" stroke-linecap="round" stroke-linejoin="round" opacity="1" fill="none"></path><path d="M1016.7 524.76H1033.15" stroke="#333333" stroke-width="2" stroke-linecap="round" stroke-linejoin="round" opacity="1" fill="none"></path><path d="M1016.7 500.6H1026.34" stroke="#333333" stroke-width="2" stroke-linecap="round" stroke-linejoin="round" opacity="1" fill="none"></path><path d="M1016.7 476.52H1033.15" stroke="#333333" stroke-width="2" stroke-linecap="round" stroke-linejoin="round" opacity="1" fill="none"></path><path d="M1016.7 452.37H1033.15" stroke="#333333" stroke-width="2" stroke-linecap="round" stroke-linejoin="round" opacity="1" fill="none"></path><path d="M659.98 671.18H982.65" stroke="#333333" stroke-width="2" stroke-linecap="round" stroke-linejoin="round" opacity="1" fill="none"></path><path d="M659.98 664.04V678.39" stroke="#333333" stroke-width="2" stroke-linecap="round" stroke-linejoin="round" opacity="1" fill="none"></path><path d="M671.09 661.29V675.64" stroke="#333333" stroke-width="2" stroke-linecap="round" stroke-linejoin="round" opacity="1" fill="none"></path><path d="M682.2 665.42V677.01" stroke="#333333" stroke-width="2" stroke-linecap="round" stroke-linejoin="round" opacity="1" fill="none"></path><path d="M693.3 669.47V683.82" stroke="#333333" stroke-width="2" stroke-linecap="round" stroke-linejoin="round" opacity="1" fill="none"></path><path d="M704.49 665.42V679.69" stroke="#333333" stroke-width="2" stroke-linecap="round" stroke-linejoin="round" opacity="1" fill="none"></path><path d="M715.6 656.91V671.18" stroke="#333333" stroke-width="2" stroke-linecap="round" stroke-linejoin="round" opacity="1" fill="none"></path><path d="M726.7 664.04V678.39" stroke="#333333" stroke-width="2" stroke-linecap="round" stroke-linejoin="round" opacity="1" fill="none"></path><path d="M737.81 666.8V681.07" stroke="#333333" stroke-width="2" stroke-linecap="round" stroke-linejoin="round" opacity="1" fill="none"></path><path d="M749 661.29V675.64" stroke="#333333" stroke-width="2" stroke-linecap="round" stroke-linejoin="round" opacity="1" fill="none"></path><path d="M760.11 671.18V685.53" stroke="#333333" stroke-width="2" stroke-linecap="round" stroke-linejoin="round" opacity="1" fill="none"></path><path d="M771.21 666.8V681.07" stroke="#333333" stroke-width="2" stroke-linecap="round" stroke-linejoin="round" opacity="1" fill="none"></path><path d="M782.32 664.04V678.39" stroke="#333333" stroke-width="2" stroke-linecap="round" stroke-linejoin="round" opacity="1" fill="none"></path><path d="M793.51 661.29V675.64" stroke="#333333" stroke-width="2" stroke-linecap="round" stroke-linejoin="round" opacity="1" fill="none"></path><path d="M804.61 661.29V675.64" stroke="#333333" stroke-width="2" stroke-linecap="round" stroke-linejoin="round" opacity="1" fill="none"></path><path d="M815.72 668.18V682.45" stroke="#333333" stroke-width="2" stroke-linecap="round" stroke-linejoin="round" opacity="1" fill="none"></path><path d="M826.83 664.04V678.39" stroke="#333333" stroke-width="2" stroke-linecap="round" stroke-linejoin="round" opacity="1" fill="none"></path><path d="M838.02 658.61V671.18" stroke="#333333" stroke-width="2" stroke-linecap="round" stroke-linejoin="round" opacity="1" fill="none"></path><path d="M849.12 666.8V678.39" stroke="#333333" stroke-width="2" stroke-linecap="round" stroke-linejoin="round" opacity="1" fill="none"></path><path d="M860.23 658.61V678.39" stroke="#333333" stroke-width="2" stroke-linecap="round" stroke-linejoin="round" opacity="1" fill="none"></path><path d="M871.34 664.04V674.26" stroke="#333333" stroke-width="2" stroke-linecap="round" stroke-linejoin="round" opacity="1" fill="none"></path><path d="M882.52 666.8V681.07" stroke="#333333" stroke-width="2" stroke-linecap="round" stroke-linejoin="round" opacity="1" fill="none"></path><path d="M893.63 662.66V677.01" stroke="#333333" stroke-width="2" stroke-linecap="round" stroke-linejoin="round" opacity="1" fill="none"></path><path d="M904.74 664.04V678.39" stroke="#333333" stroke-width="2" stroke-linecap="round" stroke-linejoin="round" opacity="1" fill="none"></path><path d="M915.84 664.04V675.64" stroke="#333333" stroke-width="2" stroke-linecap="round" stroke-linejoin="round" opacity="1" fill="none"></path><path d="M927.03 658.61V678.39" stroke="#333333" stroke-width="2" stroke-linecap="round" stroke-linejoin="round" opacity="1" fill="none"></path><path d="M938.14 668.18V682.45" stroke="#333333" stroke-width="2" stroke-linecap="round" stroke-linejoin="round" opacity="1" fill="none"></path><path d="M949.25 659.99V674.26" stroke="#333333" stroke-width="2" stroke-linecap="round" stroke-linejoin="round" opacity="1" fill="none"></path><path d="M960.35 659.99V674.26" stroke="#333333" stroke-width="2" stroke-linecap="round" stroke-linejoin="round" opacity="1" fill="none"></path><path d="M971.54 666.8V681.07" stroke="#333333" stroke-width="2" stroke-linecap="round" stroke-linejoin="round" opacity="1" fill="none"></path><path d="M982.65 664.04V678.39" stroke="#333333" stroke-width="2" stroke-linecap="round" stroke-linejoin="round" opacity="1" fill="none"></path><path d="M659.98 463.47C659.98 463.39 659.98 463.39 660.06 463.39H689.9C689.98 463.39 689.98 463.39 689.98 463.47V473.77C689.98 473.85 689.98 473.85 689.9 473.85H660.06C659.98 473.85 659.98 473.85 659.98 473.77V463.47Z" fill="#54c4c9" stroke="#333333" stroke-width="2" stroke-linecap="round" stroke-linejoin="round" opacity="1"></path><path d="M699.3 463.47C699.3 463.39 699.3 463.39 699.38 463.39H729.22C729.3 463.39 729.3 463.39 729.3 463.47V473.77C729.3 473.85 729.3 473.85 729.22 473.85H699.38C699.3 473.85 699.3 473.85 699.3 473.77V463.47Z" fill="#54c4c9" stroke="#333333" stroke-width="2" stroke-linecap="round" stroke-linejoin="round" opacity="1"></path><path d="M659.98 448.07H769.51" stroke="#333333" stroke-width="2" stroke-linecap="round" stroke-linejoin="round" opacity="1" fill="none"></path></g><g><path d="M405.9 678.6C405.9 678.5 405.9 678.5 405.9 678.6L472.6 649.6C472.6 649.6 472.6 649.6 472.7 649.6L554.2 678.5 554.3 678.6V968.9C554.3 969 554.3 969 554.2 969H406C405.9 969 405.9 969 405.9 968.9V678.6Z" fill="#48466d" stroke="#333333" stroke-width="2" stroke-linecap="round" stroke-linejoin="round" opacity="1"></path><path d="M501.1 498.7H501.2C517.6 490.9 528.8 474.2 528.8 454.9 528.8 448.6 527.6 442.5 525.4 437 524.8 436.3 502 411.7 482.4 430 462.8 448.3 499.5 496.7 501.1 498.7Z" fill="#ffffff" stroke="#333333" stroke-width="2" stroke-linecap="round" stroke-linejoin="round" opacity="1"></path><path d="M501.1 411.1C494.8 408.1 487.7 406.4 480.3 406.4 459.8 406.4 442.3 419.1 435.2 437 433 442.5 431.8 448.6 431.8 454.9 431.8 481.7 453.5 503.4 480.3 503.4 487.8 503.4 494.8 501.7 501 498.7L501.1 498.6V437.1C501.1 437 501.1 437 501.2 437H525.3 525.4V436.9C520.7 425.6 512.1 416.4 501.1 411.1Z" fill="#48466d" stroke="#333333" stroke-width="2" stroke-linecap="round" stroke-linejoin="round" opacity="1"></path><path d="M425.2 488.6H535.7C551.4 488.6 565.8 497.3 573.1 511.1L592.3 547.2C592.3 547.2 592.4 547.3 592.4 547.2L664.7 508.9H664.8C664.8 508.9 664.8 508.9 664.9 509L688.9 560.4V560.5L596.6 610.2C581.8 618.2 563.3 612.9 554.9 598.4L554.3 597.4C554.3 597.4 554.2 597.3 554.2 597.4L554.1 597.5 554.3 678.3V678.4C554.3 678.4 554.3 678.4 554.2 678.4H406C405.9 678.4 405.9 678.4 405.9 678.3V634.7 634.6L371.2 610.2C360.6 602.8 356.5 589.1 361.1 577L384.7 516.3C391.2 499.6 407.3 488.6 425.2 488.6Z" fill="#ffffff" stroke="#333333" stroke-width="2" stroke-linecap="round" stroke-linejoin="round" opacity="1"></path><path d="M405.9 556.3V541.4" stroke="#333333" stroke-width="2" stroke-linecap="round" stroke-linejoin="round" opacity="1" fill="none"></path><path d="M405.9 634.6V568.2" stroke="#333333" stroke-width="2" stroke-linecap="round" stroke-linejoin="round" opacity="1" fill="none"></path><path d="M554.2 597.2V541.4" stroke="#333333" stroke-width="2" stroke-linecap="round" stroke-linejoin="round" opacity="1" fill="none"></path><path d="M592.4 547.4L599.7 562.3" stroke="#333333" stroke-width="2" stroke-linecap="round" stroke-linejoin="round" opacity="1" fill="none"></path><path d="M461.3 755.8V731.8" stroke="#333333" stroke-width="2" stroke-linecap="round" stroke-linejoin="round" opacity="1" fill="none"></path><path d="M461.3 968.7V766.9" stroke="#333333" stroke-width="2" stroke-linecap="round" stroke-linejoin="round" opacity="1" fill="none"></path><path d="M450.9 731.8H474.3" stroke="#333333" stroke-width="2" stroke-linecap="round" stroke-linejoin="round" opacity="1" fill="none"></path></g></svg>