<svg xmlns="http://www.w3.org/2000/svg" height="1200" width="1600" version="1.1" xmlns:xlink="http://www.w3.org/1999/xlink" xmlns:svgjs="http://svgjs.com/svgjs"><rect fill="#effaff" width="1600" height="1200"></rect><g><path d="M136.86 969.06L1463.14 968.05" stroke="#333333" stroke-width="2" stroke-linecap="round" stroke-linejoin="round" opacity="1" fill="none"></path></g><g><path d="M702.23 321.7H611.72 611.6L588.64 297.07V296.95L611.6 272.2C611.6 272.2 611.6 272.2 611.72 272.2H702.23C702.35 272.2 702.35 272.2 702.35 272.32V321.58C702.35 321.7 702.35 321.7 702.23 321.7Z" fill="#54c4c9" stroke="#333333" stroke-width="2" stroke-linecap="round" stroke-linejoin="round" opacity="1"></path><path d="M670.67 283.44L643.53 310.34" stroke="#333333" stroke-width="2" stroke-linecap="round" stroke-linejoin="round" opacity="1" fill="none"></path><path d="M648.07 292.53C650.58 292.53 652.61 290.49 652.61 287.98 652.61 285.47 650.58 283.44 648.07 283.44 645.56 283.44 643.53 285.47 643.53 287.98 643.53 290.49 645.56 292.53 648.07 292.53Z" stroke="#333333" stroke-width="2" stroke-linecap="round" stroke-linejoin="round" opacity="1" fill="none"></path><path d="M666.12 310.34C668.63 310.34 670.67 308.31 670.67 305.8 670.67 303.29 668.63 301.25 666.12 301.25 663.61 301.25 661.58 303.29 661.58 305.8 661.58 308.31 663.61 310.34 666.12 310.34Z" stroke="#333333" stroke-width="2" stroke-linecap="round" stroke-linejoin="round" opacity="1" fill="none"></path></g><g><path d="M1159.45 968.76C1159.45 898.04 1203.18 840.5 1257.3 840.5 1311.17 840.5 1355.14 898.04 1355.14 968.76H1159.45Z" fill="#abedd8" stroke="#333333" stroke-width="2" stroke-linecap="round" stroke-linejoin="round" opacity="1"></path><path d="M1376.16 968.76H1138.19" stroke="#333333" stroke-width="2" stroke-linecap="round" stroke-linejoin="round" opacity="1" fill="none"></path><path d="M1334.85 790.57C1317.21 820.98 1288.95 840.75 1257.3 840.75 1203.18 840.75 1159.45 783.47 1159.45 712.75H1355.14C1355.14 729.48 1352.49 745.45 1348.14 760.4" fill="#abedd8" opacity="1" stroke-width="2" stroke="none"></path><path d="M1334.85 790.57C1317.21 820.98 1288.95 840.75 1257.3 840.75 1203.18 840.75 1159.45 783.47 1159.45 712.75H1355.14C1355.14 729.48 1352.49 745.45 1348.14 760.4" stroke="#333333" stroke-width="2" stroke-linecap="round" stroke-linejoin="round" opacity="1" fill="none"></path><path d="M1138.19 712.5H1376.16" stroke="#333333" stroke-width="2" stroke-linecap="round" stroke-linejoin="round" opacity="1" fill="none"></path><path d="M1354.9 968.76C1354.9 933.02 1343.79 900.57 1325.91 877.51 1296.68 896.77 1264.79 880.04 1247.39 870.66 1216.95 853.43 1194.49 870.92 1193.04 872.69 1172.74 896.26 1159.7 930.48 1159.7 969.01L1354.9 968.76Z" fill="#54c4c9" stroke="#333333" stroke-width="2" stroke-linecap="round" stroke-linejoin="round" opacity="1"></path></g><g><path d="M1128.95 485.4C1199.19 485.4 1256.15 428.44 1256.15 358.2 1256.15 287.96 1199.19 231 1128.95 231 1058.71 231 1001.75 287.96 1001.75 358.2 1001.75 428.44 1058.71 485.4 1128.95 485.4Z" fill="#abedd8" stroke="#333333" stroke-width="2" stroke-linecap="round" stroke-linejoin="round" opacity="1"></path><path d="M1128.95 231V358.2H1001.75" stroke="#333333" stroke-width="2" stroke-linecap="round" stroke-linejoin="round" opacity="1" fill="none"></path><path d="M1175.33 239.68L1128.95 358.2 1218.72 268.16" stroke="#333333" stroke-width="2" stroke-linecap="round" stroke-linejoin="round" opacity="1" fill="none"></path></g><g><path d="M468.35 493.13V599.81C468.35 599.9 468.35 599.9 468.26 599.9H208.54C208.45 599.9 208.45 599.9 208.45 599.81V304.89C208.45 304.8 208.45 304.8 208.54 304.8H468.26C468.35 304.8 468.35 304.8 468.35 304.89V474.41" fill="#78c7e0" opacity="1" stroke-width="2" stroke="none"></path><path d="M468.35 493.13V599.81C468.35 599.9 468.35 599.9 468.26 599.9H208.54C208.45 599.9 208.45 599.9 208.45 599.81V304.89C208.45 304.8 208.45 304.8 208.54 304.8H468.26C468.35 304.8 468.35 304.8 468.35 304.89V474.41" stroke="#333333" stroke-width="2" stroke-linecap="round" stroke-linejoin="round" opacity="1" fill="none"></path><path d="M360.59 469.81L348.26 488.72C348.26 488.72 348.17 488.81 348.17 488.72L306.4 461.53 264.45 525.9V525.99L281.82 538.59C281.82 538.59 281.82 538.59 281.91 538.59H282L312.7 491.6C312.7 491.6 312.7 491.6 312.79 491.6H312.88L354.56 518.79 396.51 454.51C396.51 454.51 396.6 454.42 396.6 454.51L412.36 464.77H412.45V464.68L403.89 423.54C403.89 423.45 403.8 423.45 403.8 423.45L362.57 432C362.57 432 362.48 432 362.48 432.09 362.48 432.18 362.48 432.18 362.48 432.18L378.24 442.54C378.24 442.54 378.33 442.63 378.24 442.63L363.92 464.59" fill="#abedd8" opacity="1" stroke-width="2" stroke="none"></path><path d="M360.59 469.81L348.26 488.72C348.26 488.72 348.17 488.81 348.17 488.72L306.4 461.53 264.45 525.9V525.99L281.82 538.59C281.82 538.59 281.82 538.59 281.91 538.59H282L312.7 491.6C312.7 491.6 312.7 491.6 312.79 491.6H312.88L354.56 518.79 396.51 454.51C396.51 454.51 396.6 454.42 396.6 454.51L412.36 464.77H412.45V464.68L403.89 423.54C403.89 423.45 403.8 423.45 403.8 423.45L362.57 432C362.57 432 362.48 432 362.48 432.09 362.48 432.18 362.48 432.18 362.48 432.18L378.24 442.54C378.24 442.54 378.33 442.63 378.24 442.63L363.92 464.59" stroke="#333333" stroke-width="2" stroke-linecap="round" stroke-linejoin="round" opacity="1" fill="none"></path><path d="M264.27 366.02V395.72" stroke="#333333" stroke-width="2" stroke-linecap="round" stroke-linejoin="round" opacity="1" fill="none"></path><path d="M288.93 366.02V395.72" stroke="#333333" stroke-width="2" stroke-linecap="round" stroke-linejoin="round" opacity="1" fill="none"></path><path d="M313.69 366.02V395.72" stroke="#333333" stroke-width="2" stroke-linecap="round" stroke-linejoin="round" opacity="1" fill="none"></path><path d="M363.11 366.02V395.72" stroke="#333333" stroke-width="2" stroke-linecap="round" stroke-linejoin="round" opacity="1" fill="none"></path><path d="M412.45 366.02V395.72" stroke="#333333" stroke-width="2" stroke-linecap="round" stroke-linejoin="round" opacity="1" fill="none"></path><path d="M264.27 380.87H412.45" stroke="#333333" stroke-width="2" stroke-linecap="round" stroke-linejoin="round" opacity="1" fill="none"></path></g><g><path d="M366.8 800.94H247.15C241.82 800.94 237.52 805.24 237.52 810.57 237.52 815.9 241.82 820.2 247.15 820.2H366.8C372.13 820.2 376.42 815.9 376.42 810.57 376.42 805.24 372.13 800.94 366.8 800.94Z" fill="#abedd8" stroke="#333333" stroke-width="2" stroke-linecap="round" stroke-linejoin="round" opacity="1"></path><path d="M346.51 820.2L368.31 969.28" stroke="#333333" stroke-width="2" stroke-linecap="round" stroke-linejoin="round" opacity="1" fill="none"></path><path d="M267.36 820.2L245.64 969.28" stroke="#333333" stroke-width="2" stroke-linecap="round" stroke-linejoin="round" opacity="1" fill="none"></path><path d="M306.97 820.2V969.28" stroke="#333333" stroke-width="2" stroke-linecap="round" stroke-linejoin="round" opacity="1" fill="none"></path><path d="M346.51 894.74H366.8" stroke="#333333" stroke-width="2" stroke-linecap="round" stroke-linejoin="round" opacity="1" fill="none"></path><path d="M247.15 894.74H335.14" stroke="#333333" stroke-width="2" stroke-linecap="round" stroke-linejoin="round" opacity="1" fill="none"></path></g><g><path d="M938.5 758.6H879.8L919.2 851C924.5 863.3 915.4 877 902 877 894.5 877 887.8 872.5 884.8 865.7L839.1 758.7H780.4L864.6 955.9H871.6 923.3 963.9 975.1 1022.6L938.5 758.6Z" fill="#3d84a8" stroke="#333333" stroke-width="2" stroke-linecap="round" stroke-linejoin="round" opacity="1"></path><path d="M1123.9 763.8C1123.9 770.4 1118.5 775.8 1111.9 775.8H593C586.4 775.8 581 770.4 581 763.8V726.1C618.1 607.2 616 519.7 581 394.6V360C581 353.4 586.4 348 593 348H1111.9C1118.5 348 1123.9 353.4 1123.9 360V394.6C1109.7 512.5 1102.5 585.4 1123.9 726.1V763.8Z" fill="#3d84a8" stroke="#333333" stroke-width="2" stroke-linecap="round" stroke-linejoin="round" opacity="1"></path><path d="M852.5 376.7C855.48 376.7 857.9 374.28 857.9 371.3 857.9 368.32 855.48 365.9 852.5 365.9 849.52 365.9 847.1 368.32 847.1 371.3 847.1 374.28 849.52 376.7 852.5 376.7Z" fill="#54c4c9" stroke="#333333" stroke-width="2" stroke-linecap="round" stroke-linejoin="round" opacity="1"></path><path d="M1029.4 944.6H675.4C671.6 944.6 668.5 947.7 668.5 951.5V969H1036.3V951.6C1036.4 947.7 1033.3 944.6 1029.4 944.6Z" fill="#3d84a8" stroke="#333333" stroke-width="2" stroke-linecap="round" stroke-linejoin="round" opacity="1"></path><path d="M1123.9 394.6H581V726.1H1123.9V394.6Z" fill="#78c7e0" stroke="#333333" stroke-width="2" stroke-linecap="round" stroke-linejoin="round" opacity="1"></path></g><g><path d="M1047.05 452.74L1063.39 442.87 1073.25 459.37" stroke="#333333" stroke-width="2" stroke-linecap="round" stroke-linejoin="round" opacity="1" fill="none"></path><path d="M771.96 527.25H745.59 719.23V504.11H771.96V527.25Z" fill="#54c4c9" stroke="#333333" stroke-width="2" stroke-linecap="round" stroke-linejoin="round" opacity="1"></path><path d="M745.59 543.41V527.25" stroke="#333333" stroke-width="2" stroke-linecap="round" stroke-linejoin="round" opacity="1" fill="none"></path><path d="M765.5 619.46H791.87 818.07V642.6H765.5V619.46Z" fill="#54c4c9" stroke="#333333" stroke-width="2" stroke-linecap="round" stroke-linejoin="round" opacity="1"></path><path d="M791.87 603.3V619.46" stroke="#333333" stroke-width="2" stroke-linecap="round" stroke-linejoin="round" opacity="1" fill="none"></path><path d="M1013.88 573.53H1040.25 1066.62V596.49H1013.88V573.53Z" fill="#54c4c9" stroke="#333333" stroke-width="2" stroke-linecap="round" stroke-linejoin="round" opacity="1"></path><path d="M1040.25 541.03V573.53" stroke="#333333" stroke-width="2" stroke-linecap="round" stroke-linejoin="round" opacity="1" fill="none"></path><path d="M890.88 662.67H917.08 943.45V685.64H890.88V662.67Z" fill="#ffffff" stroke="#333333" stroke-width="2" stroke-linecap="round" stroke-linejoin="round" opacity="1"></path><path d="M917.08 636.64V662.67" stroke="#333333" stroke-width="2" stroke-linecap="round" stroke-linejoin="round" opacity="1" fill="none"></path><path d="M861.62 462.77H835.25 809.05V439.64H861.62V462.77Z" fill="#3d84a8" stroke="#333333" stroke-width="2" stroke-linecap="round" stroke-linejoin="round" opacity="1"></path><path d="M835.25 543.41V462.77" stroke="#333333" stroke-width="2" stroke-linecap="round" stroke-linejoin="round" opacity="1" fill="none"></path><path d="M638.42 644.81L745.76 554.13 791.53 593.43 835.42 556.17 916.57 622.52 1039.91 521.98 1063.39 443.04" stroke="#333333" stroke-width="2" stroke-linecap="round" stroke-linejoin="round" opacity="1" fill="none"></path></g><g><path d="M419.25 673.86L498.16 659.25 577.21 673.86V969H419.25V673.86Z" fill="#48466d" stroke="#333333" stroke-width="2" stroke-linecap="round" stroke-linejoin="round" opacity="1"></path><path d="M644.6 538.67L683.58 521.53 707.3 574.98 577.21 638.75V673.86H419.25V650.81C401.43 650.81 386.83 636.34 386.83 618.39V545.24C386.83 505.98 418.72 474.1 457.97 474.1H533.4C556.58 474.1 575.2 492.85 575.2 515.9V569.22L632.41 544.03" fill="#ffffff" opacity="1" stroke-width="2" stroke="none"></path><path d="M644.6 538.67L683.58 521.53 707.3 574.98 577.21 638.75V673.86H419.25V650.81C401.43 650.81 386.83 636.34 386.83 618.39V545.24C386.83 505.98 418.72 474.1 457.97 474.1H533.4C556.58 474.1 575.2 492.85 575.2 515.9V569.22L632.41 544.03" stroke="#333333" stroke-width="2" stroke-linecap="round" stroke-linejoin="round" opacity="1" fill="none"></path><path d="M519.73 427.07C519.73 427.07 479.94 403.22 446.98 433.64 440.15 439.93 426.75 458.82 437.2 483.74 447.92 500.22 467.75 509.47 488.25 505.72 524.29 499.15 541.3 456.95 519.73 427.07Z" fill="#ffffff" stroke="#333333" stroke-width="2" stroke-linecap="round" stroke-linejoin="round" opacity="1"></path><path d="M503.92 448.24L506.74 464.18" stroke="#333333" stroke-width="2" stroke-linecap="round" stroke-linejoin="round" opacity="1" fill="none"></path><path d="M493.61 466.6C494.28 470.21 497.76 472.62 501.38 471.95 505 471.28 507.41 467.8 506.74 464.18" stroke="#333333" stroke-width="2" stroke-linecap="round" stroke-linejoin="round" opacity="1" fill="none"></path><path d="M470.03 407.24C435.06 413.67 417.51 453.73 437.07 483.74 449.13 481.6 457.03 470.08 454.75 458.02L451.41 439.67 519.6 427.21C508.75 411.93 489.72 403.63 470.03 407.24Z" fill="#48466d" stroke="#333333" stroke-width="2" stroke-linecap="round" stroke-linejoin="round" opacity="1"></path><path d="M622.63 510H532.46L522.14 574.04 548 563.59 568.37 622.54 518.53 642.5H601.32L622.63 510Z" fill="#abedd8" stroke="#333333" stroke-width="2" stroke-linecap="round" stroke-linejoin="round" opacity="1"></path><path d="M419.25 650.81H497.63L518.53 642.5" stroke="#333333" stroke-width="2" stroke-linecap="round" stroke-linejoin="round" opacity="1" fill="none"></path><path d="M452.07 566.14C452.07 579.27 441.49 589.85 428.36 589.85H483.02L522.28 574.04" stroke="#333333" stroke-width="2" stroke-linecap="round" stroke-linejoin="round" opacity="1" fill="none"></path><path d="M526.3 742.72V726.64" stroke="#333333" stroke-width="2" stroke-linecap="round" stroke-linejoin="round" opacity="1" fill="none"></path><path d="M526.3 969V754.24" stroke="#333333" stroke-width="2" stroke-linecap="round" stroke-linejoin="round" opacity="1" fill="none"></path></g></svg>