<svg version="1.1" id="Layer_1" xmlns="http://www.w3.org/2000/svg" xmlns:xlink="http://www.w3.org/1999/xlink" x="0px" y="0px"
	 width="100%" viewBox="0 0 263 280" enable-background="new 0 0 263 280" xml:space="preserve">
<path fill="#F7F8F9" opacity="1.000000" stroke="none" 
	d="
M1.000000,106.000000 
	C1.000000,70.666679 1.000000,35.833359 1.000000,1.000028 
	C88.666626,1.000019 176.333252,1.000019 263.999908,1.000009 
	C263.999939,94.333252 263.999939,187.666504 263.999969,280.999817 
	C176.333435,280.999878 88.666885,280.999878 1.000163,280.999939 
	C1.000000,222.833328 1.000000,164.666672 1.000000,106.000000 
M148.164017,19.626888 
	C149.107162,19.077547 150.050323,18.528206 151.655655,17.924461 
	C152.451019,17.456842 153.246384,16.989225 154.041748,16.521606 
	C153.922836,16.234913 153.803925,15.948219 153.685013,15.661526 
	C152.791183,15.807773 151.897339,15.954019 150.350754,16.085056 
	C149.085144,16.891914 147.819519,17.698772 145.896744,18.848818 
	C145.197601,19.620005 144.498459,20.391190 143.799316,21.162376 
	C144.061981,21.427357 144.324631,21.692339 144.587280,21.957321 
	C145.573288,21.255926 146.559296,20.554533 148.164017,19.626888 
M55.150703,259.093903 
	C55.150703,259.093903 55.274071,259.109680 55.274071,259.109680 
	C55.274071,259.109680 54.904781,259.069000 54.815022,258.156342 
	C54.653969,254.528076 54.492916,250.899811 53.497101,247.231323 
	C53.174435,251.248840 52.851768,255.266357 52.529099,259.283875 
	C53.058418,259.082703 53.587738,258.881561 54.576385,258.752594 
	C54.576385,258.752594 54.960678,259.014374 55.150703,259.093903 
M156.655869,162.397675 
	C155.820038,160.882065 154.984207,159.366455 154.019867,157.132111 
	C148.677887,152.576889 143.472778,152.888184 137.637741,159.265564 
	C132.666626,164.698730 127.723183,169.304352 119.885078,170.024338 
	C116.933189,170.295502 114.068504,172.191833 114.156433,175.124969 
	C118.167534,173.665680 122.259735,172.486176 126.064308,170.695541 
	C129.145508,169.245377 132.040894,167.262360 134.720840,165.139618 
	C137.046036,163.297852 138.766068,160.693207 141.087463,158.845184 
	C144.995193,155.734314 149.193359,155.131393 153.633026,159.243042 
	C154.332367,160.911972 155.031693,162.580887 156.163513,164.835327 
	C159.880249,164.835327 163.597000,164.835327 167.313736,164.835327 
	C167.315308,164.228882 167.316879,163.622437 167.318451,163.015991 
	C163.813095,163.015991 160.307739,163.015991 156.655869,162.397675 
M104.999229,252.310501 
	C104.672928,251.698410 104.346626,251.086304 104.020325,250.474213 
	C103.737244,250.770370 103.454163,251.066544 103.171082,251.362701 
	C103.779709,251.909439 104.388329,252.456177 104.998482,253.772202 
	C104.419067,255.636551 103.839653,257.500916 103.169670,259.656677 
	C107.793442,257.932495 108.187256,256.031219 104.999229,252.310501 
M101.056419,37.073372 
	C103.458603,36.228523 105.860786,35.383678 108.262970,34.538830 
	C108.706116,34.950821 109.149261,35.362816 109.592407,35.774807 
	C108.224358,38.143707 107.295845,40.966686 105.405724,42.796230 
	C99.772011,48.249428 98.043510,54.291424 100.881149,61.705971 
	C102.356400,65.560699 103.727325,69.508751 104.578438,73.534500 
	C105.496193,77.875542 105.149384,82.176781 100.461304,85.411972 
	C98.995872,85.721931 97.530441,86.031898 95.829216,85.676262 
	C90.184532,80.298309 84.814331,74.581650 78.776588,69.688721 
	C75.862785,67.327400 71.787102,65.547287 68.073936,65.186203 
	C57.325058,64.140907 40.745941,76.245949 42.118988,94.046471 
	C43.071957,106.401054 48.417046,117.318298 55.350582,127.437164 
	C55.886959,128.219940 57.267036,128.424591 58.684135,129.455154 
	C65.945061,150.047440 79.085724,165.630264 98.941887,174.840912 
	C120.452873,184.819138 142.277954,185.076645 164.668228,174.818375 
	C170.641418,170.807083 176.614594,166.795776 183.164276,162.417267 
	C187.450012,156.958862 191.735748,151.500473 196.009491,146.006195 
	C196.009491,146.006195 196.046524,146.016785 196.757034,146.054932 
	C218.043213,114.772659 209.817017,67.204178 179.219345,44.806530 
	C178.482986,44.267513 177.494095,44.073505 176.622986,43.718578 
	C176.242233,44.222012 175.861481,44.725445 175.480743,45.228878 
	C176.365814,45.668270 177.373886,45.957848 178.118057,46.568840 
	C199.452103,64.084595 208.535126,86.695770 205.980133,114.060516 
	C205.309509,121.243149 204.079575,128.285767 198.366791,133.545166 
	C194.863358,136.770554 191.577682,140.264618 187.860428,143.217896 
	C182.556396,147.431808 181.419876,150.520264 182.987488,157.008621 
	C183.298157,158.294571 182.028610,159.962311 180.917297,161.801361 
	C174.828293,165.812744 168.739273,169.824142 161.922256,173.928833 
	C131.232361,187.179443 97.696907,177.872208 80.194336,158.997238 
	C80.667915,157.630829 81.153763,156.229019 82.420059,154.966064 
	C92.746979,159.320862 103.277634,161.350479 114.673088,160.179749 
	C128.339157,158.775742 140.819107,154.799805 152.069138,146.964233 
	C160.195328,141.304382 166.991165,134.767868 167.308014,123.311356 
	C167.810349,122.783173 168.312683,122.254982 168.815018,121.726791 
	C168.214905,121.444046 167.614807,121.161293 166.911804,120.167778 
	C164.986084,112.929771 160.144928,108.039635 153.193115,106.343803 
	C142.322403,103.692017 131.206970,102.043343 120.118271,99.207924 
	C120.724854,96.589447 121.331436,93.970970 121.938019,91.352486 
	C121.459732,91.205788 120.981445,91.059090 120.503159,90.912392 
	C119.633606,93.601982 118.764053,96.291580 117.142998,98.979965 
	C110.595558,96.791466 104.407845,94.084404 101.181862,87.305328 
	C101.602417,87.033524 102.022972,86.761726 103.081192,86.193756 
	C107.818810,82.338943 107.651192,77.172684 106.457520,72.027565 
	C105.485168,67.836380 103.791580,63.815830 102.488556,59.697231 
	C100.783340,54.307369 102.051537,49.750763 105.747063,45.387878 
	C108.463715,42.180649 110.332153,38.254951 112.578590,34.649426 
	C112.119469,34.105770 111.660347,33.562115 111.201233,33.018456 
	C118.489532,32.002350 125.777840,30.986246 133.066147,29.970140 
	C132.969681,29.521057 132.873230,29.071974 132.776779,28.622892 
	C120.990036,28.431257 109.673592,30.576361 98.336746,36.198650 
	C89.672142,40.495358 81.823296,45.813942 75.995804,53.607002 
	C84.103256,48.121902 92.210709,42.636799 101.056419,37.073372 
M161.747711,67.996956 
	C164.404282,63.030907 167.238434,58.150211 169.675781,53.078796 
	C173.332977,45.469227 175.006897,37.400635 173.978455,28.941429 
	C172.926315,20.287588 164.224945,15.375396 156.740097,19.091681 
	C149.283142,22.794115 145.887451,33.097122 149.686172,40.494244 
	C152.178864,45.348175 155.975052,47.171349 161.633514,45.731716 
	C165.563141,41.451088 166.509415,35.902660 163.938187,32.218540 
	C162.097672,29.581423 160.280716,29.021162 157.110947,30.113361 
	C164.632904,33.841759 165.516953,39.286034 158.827133,44.719147 
	C153.739182,44.097916 151.300140,40.659126 150.351044,36.139618 
	C149.182007,30.572636 151.449417,26.065779 155.568604,22.384098 
	C159.003632,19.313902 162.868683,19.326929 166.726501,21.224174 
	C171.477478,23.560673 172.666382,28.098848 171.949768,32.681011 
	C170.883774,39.497108 169.370651,46.308186 167.279129,52.876633 
	C165.836487,57.407288 163.094315,61.524143 160.371323,66.328331 
	C159.610413,67.786514 158.849503,69.244698 158.088593,70.702888 
	C158.465775,70.954735 158.842957,71.206581 159.220139,71.458435 
	C159.881042,70.455116 160.541946,69.451797 161.747711,67.996956 
M17.405748,222.122253 
	C18.101088,223.495697 18.796429,224.869141 19.944927,227.137680 
	C21.945786,222.466644 23.547806,218.726715 25.365675,214.482895 
	C27.299023,218.794571 28.958223,222.494858 31.191723,227.475937 
	C35.426949,216.949524 39.151901,207.691360 42.887165,198.407578 
	C38.385990,196.884644 35.929489,198.107727 34.798775,202.466858 
	C34.082191,205.229446 32.639015,207.803558 31.046389,211.593201 
	C28.958092,206.533890 27.336645,202.605621 25.435265,197.999146 
	C23.382511,202.900452 21.682707,206.959015 19.682911,211.733856 
	C18.162891,207.914185 16.724306,205.060135 15.897547,202.038696 
	C14.730716,197.774460 12.169199,197.006714 7.988274,198.403915 
	C11.034199,206.089096 14.072744,213.755661 17.405748,222.122253 
M50.417854,200.847977 
	C49.477997,202.005127 48.375847,203.066544 47.626842,204.336288 
	C44.638329,209.402557 45.189579,216.782227 48.842289,221.252029 
	C53.072922,226.429047 58.725689,227.097794 64.722473,225.751099 
	C70.210167,224.518723 74.233925,219.474213 74.722168,213.358978 
	C75.175980,207.674927 73.363197,202.694397 68.325211,199.633255 
	C62.510464,196.100143 56.606941,196.503357 50.417854,200.847977 
M206.318924,226.002380 
	C209.257339,226.470688 209.516342,224.718521 209.445297,222.437103 
	C209.337631,218.979431 209.417175,215.515930 209.417175,212.054916 
	C209.992676,211.871338 210.568192,211.687759 211.143692,211.504181 
	C212.694122,213.661484 214.244568,215.818787 215.917053,218.145920 
	C218.820694,215.444031 221.020905,213.396683 223.955933,210.665588 
	C223.955933,216.388138 223.955933,220.972809 223.955933,225.770309 
	C225.889587,225.770309 227.472260,225.770309 229.140976,225.770309 
	C229.140976,216.240067 229.140976,206.890686 229.140976,196.097198 
	C224.374329,201.154846 220.506409,205.258896 216.493134,209.517181 
	C212.406113,205.050079 208.716003,201.016815 205.025894,196.983536 
	C204.617966,197.234711 204.210022,197.485886 203.802094,197.737061 
	C203.802094,206.661331 203.776367,215.585892 203.870804,224.509155 
	C203.876053,225.004761 204.875977,225.489822 206.318924,226.002380 
M142.935104,202.655563 
	C137.703079,196.498291 130.755508,197.978729 123.894745,197.986832 
	C123.894745,207.506210 123.894745,216.598587 123.894745,225.661133 
	C134.896881,226.784790 140.359848,225.353531 143.622482,220.168976 
	C147.149826,214.563751 146.997879,208.853378 142.935104,202.655563 
M94.202499,225.799362 
	C96.007889,225.799362 97.813278,225.799362 100.155296,225.799362 
	C98.045464,221.934906 96.082687,218.339783 94.057732,214.630783 
	C94.677040,214.161697 95.167717,213.758240 95.689445,213.399994 
	C99.446167,210.820267 99.912910,207.059891 98.692123,203.221436 
	C97.525490,199.553223 94.573952,197.786972 90.606728,197.864883 
	C87.178726,197.932205 83.748352,197.878860 79.932388,197.878860 
	C79.932388,206.382645 79.924309,214.315384 79.941544,222.248093 
	C79.943993,223.373611 80.069557,224.498871 80.147751,225.781815 
	C81.999146,225.781815 83.577240,225.781815 85.356544,225.781815 
	C85.619270,222.130630 85.867226,218.684814 86.115181,215.238998 
	C86.628616,215.114487 87.142059,214.989960 87.655502,214.865448 
	C89.640747,218.339355 91.625992,221.813263 94.202499,225.799362 
M151.707764,218.552994 
	C155.743774,224.915497 161.629089,227.583847 168.118744,225.607193 
	C169.558121,225.168762 171.503891,223.638397 171.692703,222.381851 
	C172.194046,219.045502 171.862900,215.584061 171.862900,212.201569 
	C169.545151,212.201569 167.955704,212.201569 165.987534,212.201569 
	C165.987534,213.759354 166.036880,215.063828 165.973389,216.362808 
	C165.912384,217.610580 165.734512,218.852631 165.611908,220.058731 
	C159.331039,220.009247 155.875412,216.784241 156.121445,211.543320 
	C156.405746,205.487335 160.369583,203.235886 170.449722,203.712006 
	C170.603287,202.034973 170.758865,200.336151 170.932373,198.441299 
	C164.501511,196.986084 158.807404,197.152191 154.262955,201.748032 
	C149.730194,206.332016 149.038834,211.903641 151.707764,218.552994 
M192.116837,207.293213 
	C190.702972,203.889465 189.289124,200.485718 187.467590,196.100525 
	C183.219818,206.630081 179.422577,216.042847 175.046951,226.889297 
	C180.191086,225.274704 183.803329,223.244766 187.409500,223.255493 
	C191.184158,223.266724 194.952988,225.238510 200.021118,226.736679 
	C197.128738,219.620667 194.767929,213.812485 192.116837,207.293213 
M241.384445,208.171783 
	C241.384445,206.759293 241.384445,205.346786 241.384445,203.819778 
	C244.455185,203.616348 246.908829,203.453781 249.607697,203.274979 
	C249.607697,201.482498 249.607697,199.924088 249.607697,198.116959 
	C244.934937,198.116959 240.510941,198.116959 235.867844,198.116959 
	C235.867844,207.433929 235.867844,216.539749 235.867844,225.722717 
	C240.709045,225.722717 245.302429,225.722717 250.195389,225.722717 
	C250.085556,223.829269 249.993439,222.241302 249.888992,220.440659 
	C246.942551,220.281052 244.345749,220.140366 241.629272,219.993210 
	C241.629272,218.150986 241.629272,216.634186 241.629272,215.062622 
	C244.128983,214.881134 246.244568,214.727524 248.572327,214.558517 
	C248.572327,212.693466 248.572327,211.118988 248.572327,209.312805 
	C246.224960,209.129929 244.105347,208.964798 241.384445,208.171783 
M175.047211,115.418579 
	C179.377869,108.171272 175.112152,96.640038 164.948425,93.510460 
	C161.545242,92.462555 157.772629,92.494057 154.154510,92.299423 
	C150.735916,92.115517 147.152954,92.680405 144.811356,88.877800 
	C147.234879,86.345840 149.559280,83.917427 151.883682,81.489006 
	C151.521515,81.086212 151.159363,80.683411 150.797195,80.280609 
	C148.229919,82.527512 145.662643,84.774406 143.116928,87.002426 
	C141.202255,85.666016 139.584793,83.776192 137.666229,83.392677 
	C135.326874,82.925056 132.415710,83.133362 130.388397,84.228088 
	C129.402573,84.760414 128.958817,88.824883 129.866013,89.790276 
	C131.575256,91.609177 134.348557,92.671165 136.867493,93.376411 
	C138.005585,93.695068 139.558838,92.273537 140.990372,91.890533 
	C141.970291,91.628365 143.102997,91.606552 144.102158,91.805321 
	C148.045654,92.589806 151.941086,94.088135 155.895645,94.239067 
	C162.577728,94.494110 168.586517,95.773193 172.354233,101.772865 
	C175.734299,107.155212 175.088974,112.625954 172.095398,118.390038 
	C172.964722,117.625603 173.834030,116.861168 175.047211,115.418579 
M104.053986,208.526398 
	C104.053986,214.263443 104.053986,220.000504 104.053986,225.749176 
	C109.312279,225.749176 113.884644,225.749176 118.604004,225.749176 
	C118.604004,223.902344 118.604004,222.333282 118.604004,220.501434 
	C115.656685,220.288681 112.946243,220.093048 109.833549,219.868362 
	C109.833549,212.450943 109.833549,205.387482 109.833549,198.254639 
	C107.693687,198.254639 106.009903,198.254639 104.054008,198.254639 
	C104.054008,201.606659 104.054008,204.573639 104.053986,208.526398 
M140.226181,51.185471 
	C145.218887,59.657093 150.211594,68.128716 155.814728,77.636108 
	C157.326035,74.891602 158.037231,73.600098 158.345276,73.040665 
	C156.496033,71.903763 154.761597,71.418648 154.021744,70.284630 
	C150.298141,64.577354 146.414307,58.910709 143.375381,52.835320 
	C138.578217,43.244926 136.439407,33.338970 143.209763,23.531309 
	C143.305939,23.391972 143.021408,22.989834 142.603729,21.897326 
	C141.249649,23.790888 139.941635,25.179258 139.139999,26.815680 
	C135.222961,34.811642 136.915100,42.674671 140.226181,51.185471 
M163.130707,258.951630 
	C165.854813,261.195038 168.138062,260.591614 170.844666,258.340057 
	C168.155487,258.064911 166.256653,257.870605 164.357803,257.676300 
	C164.394745,257.208618 164.431686,256.740967 164.468628,256.273315 
	C165.113190,256.195740 165.777313,256.191559 166.398376,256.025909 
	C167.875336,255.631958 169.331955,255.161621 170.796783,254.722137 
	C170.097473,253.344864 169.714386,251.258652 168.618744,250.769928 
	C167.252045,250.160324 164.115280,250.378601 163.818848,251.096588 
	C162.915741,253.283981 163.010147,255.883209 163.130707,258.951630 
M59.795673,246.908340 
	C59.396660,247.182266 58.997646,247.456177 58.598629,247.730087 
	C62.651077,252.900070 62.378635,255.275208 57.572613,260.047455 
	C59.535717,259.315186 62.184113,258.355042 62.596619,256.801270 
	C63.482639,253.463821 64.580673,249.515350 59.795673,246.908340 
M116.375137,252.316345 
	C116.856415,254.830002 117.337700,257.343658 117.818985,259.857300 
	C118.514671,259.652710 119.210358,259.448120 119.906044,259.243500 
	C118.851135,256.283997 117.958862,253.243622 116.570129,250.450073 
	C116.355995,250.019318 113.861183,250.722336 112.421104,250.901031 
	C112.506714,251.262573 112.592323,251.624130 112.677933,251.985672 
	C113.656822,251.985672 114.635719,251.985672 116.375137,252.316345 
M99.995476,253.026871 
	C99.083130,252.952744 98.170784,252.878616 97.258438,252.804489 
	C97.575966,255.003403 97.893501,257.202332 98.211029,259.401245 
	C98.814651,259.306061 99.418266,259.210907 100.021881,259.115723 
	C100.021881,257.348114 100.021881,255.580505 99.995476,253.026871 
M167.383575,164.393356 
	C167.892487,165.092361 168.401398,165.791382 168.910294,166.490387 
	C169.469635,165.958679 170.028961,165.426956 170.588303,164.895248 
	C169.718307,164.567368 168.848328,164.239487 167.383575,164.393356 
z"/>
<path fill="#D6EDEE" opacity="1.000000" stroke="none" 
	d="
M100.807220,87.647911 
	C104.407845,94.084404 110.595558,96.791466 117.558914,99.448799 
	C118.009033,104.068222 117.900810,108.225960 118.108749,112.367828 
	C118.477951,119.721992 116.432426,126.072678 111.201660,131.412735 
	C109.363220,133.289581 107.710884,135.468246 106.461899,137.773651 
	C104.779144,140.879730 103.542229,144.390106 106.552567,147.400223 
	C109.681717,150.529160 112.917198,148.946533 116.304024,146.867767 
	C118.377876,145.030380 120.485413,143.518784 121.816093,141.496109 
	C127.408028,132.996231 135.660843,129.993164 145.289719,128.698639 
	C152.586594,127.717628 159.717422,125.501389 166.922134,123.834824 
	C166.991165,134.767868 160.195328,141.304382 152.069138,146.964233 
	C140.819107,154.799805 128.339157,158.775742 114.673088,160.179749 
	C103.277634,161.350479 92.746979,159.320862 82.033218,154.497452 
	C80.244629,150.269318 79.614151,145.917511 77.278030,142.875565 
	C72.643448,136.840698 72.213280,136.317139 76.804344,130.107361 
	C81.305275,124.019501 79.950844,118.969048 72.578712,116.938759 
	C68.084435,115.701042 63.192734,115.906357 58.017075,115.420067 
	C55.736767,103.474312 57.590233,91.472755 61.724678,79.744209 
	C62.876289,76.477318 69.151939,73.823807 71.860893,75.306885 
	C75.913933,77.525826 73.325951,80.883095 72.680786,83.691727 
	C72.206856,85.754913 70.833450,87.593895 70.132004,89.626358 
	C68.950615,93.049469 67.563446,96.491516 67.097725,100.035316 
	C66.849037,101.927574 68.347076,104.049400 69.056786,106.067612 
	C71.031525,104.713806 73.006264,103.360001 75.338669,102.000488 
	C77.131851,100.744781 78.567368,99.494774 80.314865,98.091202 
	C85.416298,94.920670 90.205734,91.903694 95.368538,88.893219 
	C97.430336,88.482452 99.118782,88.065178 100.807220,87.647911 
z"/>
<path fill="#D6EDEE" opacity="1.000000" stroke="none" 
	d="
M120.195221,99.969704 
	C131.206970,102.043343 142.322403,103.692017 153.193115,106.343803 
	C160.144928,108.039635 164.986084,112.929771 166.698624,120.776657 
	C160.960007,122.929558 155.519257,125.238014 149.891830,125.861565 
	C137.430695,127.242332 126.068871,130.057449 118.938469,141.685791 
	C117.935722,143.321075 116.163345,144.484436 114.380882,145.930771 
	C112.002815,145.984726 108.811813,146.712173 108.240921,145.799927 
	C107.251831,144.219421 107.194298,141.312317 107.998360,139.524963 
	C109.251831,136.738647 111.351265,134.239670 113.449425,131.945633 
	C118.043114,126.923126 120.325829,121.196533 120.090027,114.351555 
	C119.925117,109.564491 120.146416,104.764130 120.195221,99.969704 
z"/>
<path fill="#D6EDEE" opacity="1.000000" stroke="none" 
	d="
M80.002884,98.244766 
	C78.567368,99.494774 77.131851,100.744781 74.959648,101.962814 
	C72.647720,102.611961 71.072479,103.293076 69.497238,103.974190 
	C69.045685,103.722755 68.594131,103.471329 68.142578,103.219894 
	C69.475227,98.898643 70.766975,94.564217 72.152824,90.260086 
	C73.367897,86.486397 75.071396,82.824516 75.854874,78.970093 
	C76.638054,75.117035 74.370743,73.087318 70.457001,72.952148 
	C64.901779,72.760292 60.826889,75.639786 58.878548,81.271080 
	C53.411179,97.073395 54.011013,112.963936 58.254967,128.897949 
	C57.267036,128.424591 55.886959,128.219940 55.350582,127.437164 
	C48.417046,117.318298 43.071957,106.401054 42.118988,94.046471 
	C40.745941,76.245949 57.325058,64.140907 68.073936,65.186203 
	C71.787102,65.547287 75.862785,67.327400 78.776588,69.688721 
	C84.814331,74.581650 90.184532,80.298309 95.803970,86.171021 
	C95.508148,86.770187 95.248055,86.896217 94.619827,87.047493 
	C87.585167,88.566940 82.539131,92.417358 78.212463,97.789856 
	C79.051445,98.003021 79.527168,98.123894 80.002884,98.244766 
z"/>
<path fill="#4A7C95" opacity="1.000000" stroke="none" 
	d="
M58.469551,129.176544 
	C54.011013,112.963936 53.411179,97.073395 58.878548,81.271080 
	C60.826889,75.639786 64.901779,72.760292 70.457001,72.952148 
	C74.370743,73.087318 76.638054,75.117035 75.854874,78.970093 
	C75.071396,82.824516 73.367897,86.486397 72.152824,90.260086 
	C70.766975,94.564217 69.475227,98.898643 68.142578,103.219894 
	C68.594131,103.471329 69.045685,103.722755 69.497238,103.974190 
	C71.072479,103.293076 72.647720,102.611961 74.601990,101.968521 
	C73.006264,103.360001 71.031525,104.713806 69.056786,106.067612 
	C68.347076,104.049400 66.849037,101.927574 67.097725,100.035316 
	C67.563446,96.491516 68.950615,93.049469 70.132004,89.626358 
	C70.833450,87.593895 72.206856,85.754913 72.680786,83.691727 
	C73.325951,80.883095 75.913933,77.525826 71.860893,75.306885 
	C69.151939,73.823807 62.876289,76.477318 61.724678,79.744209 
	C57.590233,91.472755 55.736767,103.474312 58.017075,115.420067 
	C63.192734,115.906357 68.084435,115.701042 72.578712,116.938759 
	C79.950844,118.969048 81.305275,124.019501 76.804344,130.107361 
	C72.213280,136.317139 72.643448,136.840698 77.278030,142.875565 
	C79.614151,145.917511 80.244629,150.269318 81.642990,154.428040 
	C81.153763,156.229019 80.667915,157.630829 80.194336,158.997238 
	C97.696907,177.872208 131.232361,187.179443 162.551559,173.999664 
	C163.440796,174.348480 163.700729,174.626465 163.960663,174.904434 
	C142.277954,185.076645 120.452873,184.819138 98.941887,174.840912 
	C79.085724,165.630264 65.945061,150.047440 58.469551,129.176544 
M68.785309,145.731567 
	C71.787659,149.682480 74.790001,153.633392 77.792351,157.584305 
	C78.255379,157.384415 78.718414,157.184525 79.181450,156.984634 
	C79.181450,154.970200 79.181450,152.955780 79.192833,150.193985 
	C77.745865,147.843430 76.576416,145.253815 74.797798,143.188934 
	C70.203560,137.855255 69.977264,135.661606 74.172241,130.137527 
	C74.775955,129.342560 75.429054,128.577713 75.960632,127.736565 
	C78.188721,124.210846 77.646851,120.953712 73.753952,119.641998 
	C70.097160,118.409843 66.012444,118.314636 62.093506,118.037796 
	C59.225765,117.835205 58.093906,119.643791 59.067616,122.237885 
	C61.558044,128.872726 64.246254,135.433334 66.968575,142.626678 
	C67.301765,143.128311 67.634956,143.629944 67.979691,144.512955 
	C68.037971,144.782944 68.192863,144.975037 68.785309,145.731567 
z"/>
<path fill="#3B718C" opacity="1.000000" stroke="none" 
	d="
M17.258520,221.772247 
	C14.072744,213.755661 11.034199,206.089096 7.988274,198.403915 
	C12.169199,197.006714 14.730716,197.774460 15.897547,202.038696 
	C16.724306,205.060135 18.162891,207.914185 19.682911,211.733856 
	C21.682707,206.959015 23.382511,202.900452 25.435265,197.999146 
	C27.336645,202.605621 28.958092,206.533890 31.046389,211.593201 
	C32.639015,207.803558 34.082191,205.229446 34.798775,202.466858 
	C35.929489,198.107727 38.385990,196.884644 42.887165,198.407578 
	C39.151901,207.691360 35.426949,216.949524 31.191723,227.475937 
	C28.958223,222.494858 27.299023,218.794571 25.365675,214.482895 
	C23.547806,218.726715 21.945786,222.466644 19.944927,227.137680 
	C18.796429,224.869141 18.101088,223.495697 17.258520,221.772247 
z"/>
<path fill="#3B718C" opacity="1.000000" stroke="none" 
	d="
M50.694618,200.600769 
	C56.606941,196.503357 62.510464,196.100143 68.325211,199.633255 
	C73.363197,202.694397 75.175980,207.674927 74.722168,213.358978 
	C74.233925,219.474213 70.210167,224.518723 64.722473,225.751099 
	C58.725689,227.097794 53.072922,226.429047 48.842289,221.252029 
	C45.189579,216.782227 44.638329,209.402557 47.626842,204.336288 
	C48.375847,203.066544 49.477997,202.005127 50.694618,200.600769 
M51.957031,213.161926 
	C52.680035,217.430969 55.045330,220.026550 59.489796,220.334488 
	C63.312164,220.599335 66.947334,219.341995 67.647766,215.485580 
	C68.203255,212.427139 67.848152,208.175522 66.034515,206.024002 
	C64.444527,204.137802 60.119404,203.528793 57.262371,203.984680 
	C53.168739,204.637878 51.795952,208.314163 51.957031,213.161926 
z"/>
<path fill="#376E8A" opacity="1.000000" stroke="none" 
	d="
M205.865921,225.991089 
	C204.875977,225.489822 203.876053,225.004761 203.870804,224.509155 
	C203.776367,215.585892 203.802094,206.661331 203.802094,197.737061 
	C204.210022,197.485886 204.617966,197.234711 205.025894,196.983536 
	C208.716003,201.016815 212.406113,205.050079 216.493134,209.517181 
	C220.506409,205.258896 224.374329,201.154846 229.140976,196.097198 
	C229.140976,206.890686 229.140976,216.240067 229.140976,225.770309 
	C227.472260,225.770309 225.889587,225.770309 223.955933,225.770309 
	C223.955933,220.972809 223.955933,216.388138 223.955933,210.665588 
	C221.020905,213.396683 218.820694,215.444031 215.917053,218.145920 
	C214.244568,215.818787 212.694122,213.661484 211.143692,211.504181 
	C210.568192,211.687759 209.992676,211.871338 209.417175,212.054916 
	C209.417175,215.515930 209.337631,218.979431 209.445297,222.437103 
	C209.516342,224.718521 209.257339,226.470688 205.865921,225.991089 
z"/>
<path fill="#396F8A" opacity="1.000000" stroke="none" 
	d="
M143.156921,202.963654 
	C146.997879,208.853378 147.149826,214.563751 143.622482,220.168976 
	C140.359848,225.353531 134.896881,226.784790 123.894745,225.661133 
	C123.894745,216.598587 123.894745,207.506210 123.894745,197.986832 
	C130.755508,197.978729 137.703079,196.498291 143.156921,202.963654 
M129.191788,206.148773 
	C129.191788,210.727295 129.191788,215.305817 129.191788,219.803360 
	C136.289856,220.459000 139.703064,218.090256 140.112366,212.782852 
	C140.524643,207.436996 137.227036,203.493698 132.106903,203.533783 
	C131.138672,203.541382 130.179291,204.680359 129.191788,206.148773 
z"/>
<path fill="#4F7F97" opacity="1.000000" stroke="none" 
	d="
M196.021500,146.042084 
	C191.735748,151.500473 187.450012,156.958862 182.614700,162.255920 
	C181.872665,161.881042 181.680222,161.667511 181.487778,161.453979 
	C182.028610,159.962311 183.298157,158.294571 182.987488,157.008621 
	C181.419876,150.520264 182.556396,147.431808 187.860428,143.217896 
	C191.577682,140.264618 194.863358,136.770554 198.366791,133.545166 
	C204.079575,128.285767 205.309509,121.243149 205.980133,114.060516 
	C208.535126,86.695770 199.452103,64.084595 178.118057,46.568840 
	C177.373886,45.957848 176.365814,45.668270 175.480743,45.228878 
	C175.861481,44.725445 176.242233,44.222012 176.622986,43.718578 
	C177.494095,44.073505 178.482986,44.267513 179.219345,44.806530 
	C209.817017,67.204178 218.043213,114.772659 196.092194,145.764267 
	C196.382721,143.403137 197.338089,141.332672 198.501770,139.059845 
	C198.712952,138.399963 198.715820,137.942444 198.718674,137.484924 
	C198.266556,137.755417 197.814438,138.025894 197.100891,138.508667 
	C193.884308,141.089417 190.918396,143.444641 187.976532,145.829529 
	C183.798279,149.216736 183.200699,152.469101 186.095856,156.706650 
	C187.448822,155.217773 188.754395,153.749542 190.094604,152.313660 
	C192.057205,150.210968 194.044647,148.131470 196.021500,146.042084 
z"/>
<path fill="#3A708B" opacity="1.000000" stroke="none" 
	d="
M93.906868,225.543274 
	C91.625992,221.813263 89.640747,218.339355 87.655502,214.865448 
	C87.142059,214.989960 86.628616,215.114487 86.115181,215.238998 
	C85.867226,218.684814 85.619270,222.130630 85.356544,225.781815 
	C83.577240,225.781815 81.999146,225.781815 80.147751,225.781815 
	C80.069557,224.498871 79.943993,223.373611 79.941544,222.248093 
	C79.924309,214.315384 79.932388,206.382645 79.932388,197.878860 
	C83.748352,197.878860 87.178726,197.932205 90.606728,197.864883 
	C94.573952,197.786972 97.525490,199.553223 98.692123,203.221436 
	C99.912910,207.059891 99.446167,210.820267 95.689445,213.399994 
	C95.167717,213.758240 94.677040,214.161697 94.057732,214.630783 
	C96.082687,218.339783 98.045464,221.934906 100.155296,225.799362 
	C97.813278,225.799362 96.007889,225.799362 93.906868,225.543274 
M91.681503,203.887329 
	C89.802559,203.720520 87.923615,203.553711 85.861603,203.370651 
	C85.861603,205.852020 85.861603,207.720032 85.861603,209.550858 
	C92.912865,210.161819 93.710098,209.474747 91.681503,203.887329 
z"/>
<path fill="#3B718C" opacity="1.000000" stroke="none" 
	d="
M151.511963,218.214966 
	C149.038834,211.903641 149.730194,206.332016 154.262955,201.748032 
	C158.807404,197.152191 164.501511,196.986084 170.932373,198.441299 
	C170.758865,200.336151 170.603287,202.034973 170.449722,203.712006 
	C160.369583,203.235886 156.405746,205.487335 156.121445,211.543320 
	C155.875412,216.784241 159.331039,220.009247 165.611908,220.058731 
	C165.734512,218.852631 165.912384,217.610580 165.973389,216.362808 
	C166.036880,215.063828 165.987534,213.759354 165.987534,212.201569 
	C167.955704,212.201569 169.545151,212.201569 171.862900,212.201569 
	C171.862900,215.584061 172.194046,219.045502 171.692703,222.381851 
	C171.503891,223.638397 169.558121,225.168762 168.118744,225.607193 
	C161.629089,227.583847 155.743774,224.915497 151.511963,218.214966 
z"/>
<path fill="#3A708B" opacity="1.000000" stroke="none" 
	d="
M192.261978,207.648758 
	C194.767929,213.812485 197.128738,219.620667 200.021118,226.736679 
	C194.952988,225.238510 191.184158,223.266724 187.409500,223.255493 
	C183.803329,223.244766 180.191086,225.274704 175.046951,226.889297 
	C179.422577,216.042847 183.219818,206.630081 187.467590,196.100525 
	C189.289124,200.485718 190.702972,203.889465 192.261978,207.648758 
z"/>
<path fill="#396F8A" opacity="1.000000" stroke="none" 
	d="
M241.685089,208.485718 
	C244.105347,208.964798 246.224960,209.129929 248.572327,209.312805 
	C248.572327,211.118988 248.572327,212.693466 248.572327,214.558517 
	C246.244568,214.727524 244.128983,214.881134 241.629272,215.062622 
	C241.629272,216.634186 241.629272,218.150986 241.629272,219.993210 
	C244.345749,220.140366 246.942551,220.281052 249.888992,220.440659 
	C249.993439,222.241302 250.085556,223.829269 250.195389,225.722717 
	C245.302429,225.722717 240.709045,225.722717 235.867844,225.722717 
	C235.867844,216.539749 235.867844,207.433929 235.867844,198.116959 
	C240.510941,198.116959 244.934937,198.116959 249.607697,198.116959 
	C249.607697,199.924088 249.607697,201.482498 249.607697,203.274979 
	C246.908829,203.453781 244.455185,203.616348 241.384445,203.819778 
	C241.384445,205.346786 241.384445,206.759293 241.685089,208.485718 
z"/>
<path fill="#528299" opacity="1.000000" stroke="none" 
	d="
M174.875275,115.757660 
	C173.834030,116.861168 172.964722,117.625603 172.095398,118.390038 
	C175.088974,112.625954 175.734299,107.155212 172.354233,101.772865 
	C168.586517,95.773193 162.577728,94.494110 155.895645,94.239067 
	C151.941086,94.088135 148.045654,92.589806 144.102158,91.805321 
	C143.102997,91.606552 141.970291,91.628365 140.990372,91.890533 
	C139.558838,92.273537 138.005585,93.695068 136.867493,93.376411 
	C134.348557,92.671165 131.575256,91.609177 129.866013,89.790276 
	C128.958817,88.824883 129.402573,84.760414 130.388397,84.228088 
	C132.415710,83.133362 135.326874,82.925056 137.666229,83.392677 
	C139.584793,83.776192 141.202255,85.666016 143.116928,87.002426 
	C145.662643,84.774406 148.229919,82.527512 150.797195,80.280609 
	C151.159363,80.683411 151.521515,81.086212 151.883682,81.489006 
	C149.559280,83.917427 147.234879,86.345840 144.811356,88.877800 
	C147.152954,92.680405 150.735916,92.115517 154.154510,92.299423 
	C157.772629,92.494057 161.545242,92.462555 164.948425,93.510460 
	C175.112152,96.640038 179.377869,108.171272 174.875275,115.757660 
M131.152954,88.181534 
	C134.447906,92.266251 136.523895,92.402443 140.754379,88.811432 
	C136.720444,83.734673 133.755722,83.294113 131.152954,88.181534 
z"/>
<path fill="#4D7D96" opacity="1.000000" stroke="none" 
	d="
M160.932892,65.825920 
	C163.094315,61.524143 165.836487,57.407288 167.279129,52.876633 
	C169.370651,46.308186 170.883774,39.497108 171.949768,32.681011 
	C172.666382,28.098848 171.477478,23.560673 166.726501,21.224174 
	C162.868683,19.326929 159.003632,19.313902 155.568604,22.384098 
	C151.449417,26.065779 149.182007,30.572636 150.351044,36.139618 
	C151.300140,40.659126 153.739182,44.097916 159.455109,44.874725 
	C160.375992,45.323380 160.668869,45.616451 160.961761,45.909523 
	C155.975052,47.171349 152.178864,45.348175 149.686172,40.494244 
	C145.887451,33.097122 149.283142,22.794115 156.740097,19.091681 
	C164.224945,15.375396 172.926315,20.287588 173.978455,28.941429 
	C175.006897,37.400635 173.332977,45.469227 169.675781,53.078796 
	C167.238434,58.150211 164.404282,63.030907 161.413849,67.787216 
	C161.030960,66.993629 160.981918,66.409775 160.932892,65.825920 
z"/>
<path fill="#3E738E" opacity="1.000000" stroke="none" 
	d="
M104.054001,208.033508 
	C104.054008,204.573639 104.054008,201.606659 104.054008,198.254639 
	C106.009903,198.254639 107.693687,198.254639 109.833549,198.254639 
	C109.833549,205.387482 109.833549,212.450943 109.833549,219.868362 
	C112.946243,220.093048 115.656685,220.288681 118.604004,220.501434 
	C118.604004,222.333282 118.604004,223.902344 118.604004,225.749176 
	C113.884644,225.749176 109.312279,225.749176 104.053986,225.749176 
	C104.053986,220.000504 104.053986,214.263443 104.054001,208.033508 
z"/>
<path fill="#4F7F97" opacity="1.000000" stroke="none" 
	d="
M101.160652,85.242897 
	C105.149384,82.176781 105.496193,77.875542 104.578438,73.534500 
	C103.727325,69.508751 102.356400,65.560699 100.881149,61.705971 
	C98.043510,54.291424 99.772011,48.249428 105.405724,42.796230 
	C107.295845,40.966686 108.224358,38.143707 109.592407,35.774807 
	C109.149261,35.362816 108.706116,34.950821 108.262970,34.538830 
	C105.860786,35.383678 103.458603,36.228523 100.425446,36.994759 
	C99.540680,36.637451 99.286896,36.358753 99.033112,36.080055 
	C109.673592,30.576361 120.990036,28.431257 132.776779,28.622892 
	C132.873230,29.071974 132.969681,29.521057 133.066147,29.970140 
	C125.777840,30.986246 118.489532,32.002350 111.201233,33.018456 
	C111.660347,33.562115 112.119469,34.105770 112.578590,34.649426 
	C110.332153,38.254951 108.463715,42.180649 105.747063,45.387878 
	C102.051537,49.750763 100.783340,54.307369 102.488556,59.697231 
	C103.791580,63.815830 105.485168,67.836380 106.457520,72.027565 
	C107.651192,77.172684 107.818810,82.338943 102.453156,86.017471 
	C101.603622,85.641754 101.382133,85.442322 101.160652,85.242897 
z"/>
<path fill="#457992" opacity="1.000000" stroke="none" 
	d="
M120.156746,99.588814 
	C120.146416,104.764130 119.925117,109.564491 120.090027,114.351555 
	C120.325829,121.196533 118.043114,126.923126 113.449425,131.945633 
	C111.351265,134.239670 109.251831,136.738647 107.998360,139.524963 
	C107.194298,141.312317 107.251831,144.219421 108.240921,145.799927 
	C108.811813,146.712173 112.002815,145.984726 114.636002,146.053009 
	C115.498436,146.393311 115.739410,146.675903 115.980385,146.958481 
	C112.917198,148.946533 109.681717,150.529160 106.552567,147.400223 
	C103.542229,144.390106 104.779144,140.879730 106.461899,137.773651 
	C107.710884,135.468246 109.363220,133.289581 111.201660,131.412735 
	C116.432426,126.072678 118.477951,119.721992 118.108749,112.367828 
	C117.900810,108.225960 118.009033,104.068222 117.934669,99.449402 
	C118.764053,96.291580 119.633606,93.601982 120.503159,90.912392 
	C120.981445,91.059090 121.459732,91.205788 121.938019,91.352486 
	C121.331436,93.970970 120.724854,96.589447 120.156746,99.588814 
z"/>
<path fill="#4D7D96" opacity="1.000000" stroke="none" 
	d="
M116.304024,146.867767 
	C115.739410,146.675903 115.498436,146.393311 115.002342,145.988495 
	C116.163345,144.484436 117.935722,143.321075 118.938469,141.685791 
	C126.068871,130.057449 137.430695,127.242332 149.891830,125.861565 
	C155.519257,125.238014 160.960007,122.929558 166.750061,121.132034 
	C167.614807,121.161293 168.214905,121.444046 168.815018,121.726791 
	C168.312683,122.254982 167.810349,122.783173 167.115082,123.573090 
	C159.717422,125.501389 152.586594,127.717628 145.289719,128.698639 
	C135.660843,129.993164 127.408028,132.996231 121.816093,141.496109 
	C120.485413,143.518784 118.377876,145.030380 116.304024,146.867767 
z"/>
<path fill="#4F7F97" opacity="1.000000" stroke="none" 
	d="
M140.093750,50.824387 
	C136.915100,42.674671 135.222961,34.811642 139.139999,26.815680 
	C139.941635,25.179258 141.249649,23.790888 142.603729,21.897326 
	C143.021408,22.989834 143.305939,23.391972 143.209763,23.531309 
	C136.439407,33.338970 138.578217,43.244926 143.375381,52.835320 
	C146.414307,58.910709 150.298141,64.577354 154.021744,70.284630 
	C154.761597,71.418648 156.496033,71.903763 158.345276,73.040665 
	C158.037231,73.600098 157.326035,74.891602 155.814728,77.636108 
	C150.211594,68.128716 145.218887,59.657093 140.093750,50.824387 
z"/>
<path fill="#4D7D96" opacity="1.000000" stroke="none" 
	d="
M153.330750,158.646606 
	C149.193359,155.131393 144.995193,155.734314 141.087463,158.845184 
	C138.766068,160.693207 137.046036,163.297852 134.720840,165.139618 
	C132.040894,167.262360 129.145508,169.245377 126.064308,170.695541 
	C122.259735,172.486176 118.167534,173.665680 114.156433,175.124969 
	C114.068504,172.191833 116.933189,170.295502 119.885078,170.024338 
	C127.723183,169.304352 132.666626,164.698730 137.637741,159.265564 
	C143.472778,152.888184 148.677887,152.576889 153.873444,157.683990 
	C153.594925,158.372757 153.462845,158.509674 153.330750,158.646606 
z"/>
<path fill="#5F8BA1" opacity="1.000000" stroke="none" 
	d="
M162.923492,258.636902 
	C163.010147,255.883209 162.915741,253.283981 163.818848,251.096588 
	C164.115280,250.378601 167.252045,250.160324 168.618744,250.769928 
	C169.714386,251.258652 170.097473,253.344864 170.796783,254.722137 
	C169.331955,255.161621 167.875336,255.631958 166.398376,256.025909 
	C165.777313,256.191559 165.113190,256.195740 164.468628,256.273315 
	C164.431686,256.740967 164.394745,257.208618 164.357803,257.676300 
	C166.256653,257.870605 168.155487,258.064911 170.844666,258.340057 
	C168.138062,260.591614 165.854813,261.195038 162.923492,258.636902 
z"/>
<path fill="#528299" opacity="1.000000" stroke="none" 
	d="
M98.684929,36.139351 
	C99.286896,36.358753 99.540680,36.637451 100.056320,37.033924 
	C92.210709,42.636799 84.103256,48.121902 75.995804,53.607002 
	C81.823296,45.813942 89.672142,40.495358 98.684929,36.139351 
z"/>
<path fill="#4F7F97" opacity="1.000000" stroke="none" 
	d="
M164.314453,174.861404 
	C163.700729,174.626465 163.440796,174.348480 162.915558,173.953018 
	C168.739273,169.824142 174.828293,165.812744 181.202545,161.627670 
	C181.680222,161.667511 181.872665,161.881042 182.326447,162.439529 
	C176.614594,166.795776 170.641418,170.807083 164.314453,174.861404 
z"/>
<path fill="#4F7F97" opacity="1.000000" stroke="none" 
	d="
M161.297638,45.820618 
	C160.668869,45.616451 160.375992,45.323380 159.788895,44.911793 
	C165.516953,39.286034 164.632904,33.841759 157.110947,30.113361 
	C160.280716,29.021162 162.097672,29.581423 163.938187,32.218540 
	C166.509415,35.902660 165.563141,41.451088 161.297638,45.820618 
z"/>
<path fill="#5F8BA1" opacity="1.000000" stroke="none" 
	d="
M60.191658,246.922028 
	C64.580673,249.515350 63.482639,253.463821 62.596619,256.801270 
	C62.184113,258.355042 59.535717,259.315186 57.572613,260.047455 
	C62.378635,255.275208 62.651077,252.900070 58.598633,247.730087 
	C58.997646,247.456177 59.396660,247.182266 60.191658,246.922028 
z"/>
<path fill="#5F8BA1" opacity="1.000000" stroke="none" 
	d="
M115.994873,252.151001 
	C114.635719,251.985672 113.656822,251.985672 112.677933,251.985672 
	C112.592323,251.624130 112.506714,251.262573 112.421104,250.901031 
	C113.861183,250.722336 116.355995,250.019318 116.570129,250.450073 
	C117.958862,253.243622 118.851135,256.283997 119.906044,259.243500 
	C119.210358,259.448120 118.514671,259.652710 117.818985,259.857300 
	C117.337700,257.343658 116.856415,254.830002 115.994873,252.151001 
z"/>
<path fill="#E7EDF0" opacity="1.000000" stroke="none" 
	d="
M54.117054,258.680389 
	C53.587738,258.881561 53.058418,259.082703 52.529099,259.283875 
	C52.851768,255.266357 53.174435,251.248840 53.894203,247.686172 
	C54.233223,251.654144 54.175140,255.167267 54.117054,258.680389 
z"/>
<path fill="#EDF1F3" opacity="1.000000" stroke="none" 
	d="
M100.008682,253.419891 
	C100.021881,255.580505 100.021881,257.348114 100.021881,259.115723 
	C99.418266,259.210907 98.814651,259.306061 98.211029,259.401245 
	C97.893501,257.202332 97.575966,255.003403 97.258438,252.804504 
	C98.170784,252.878616 99.083130,252.952744 100.008682,253.419891 
z"/>
<path fill="#EDF1F3" opacity="1.000000" stroke="none" 
	d="
M105.003052,252.996948 
	C108.187256,256.031219 107.793442,257.932495 103.169670,259.656677 
	C103.839653,257.500916 104.419067,255.636551 104.999237,253.386108 
	C105.000000,253.000000 105.003052,252.996948 105.003052,252.996948 
z"/>
<path fill="#4D7D96" opacity="1.000000" stroke="none" 
	d="
M156.802383,163.015991 
	C160.307739,163.015991 163.813095,163.015991 167.318451,163.015991 
	C167.316879,163.622437 167.315308,164.228882 167.313736,164.835327 
	C163.597000,164.835327 159.880249,164.835327 156.234634,164.250992 
	C156.471313,163.449768 156.636856,163.232880 156.802383,163.015991 
z"/>
<path fill="#4F7F97" opacity="1.000000" stroke="none" 
	d="
M94.998444,87.043861 
	C95.248055,86.896217 95.508148,86.770187 95.921860,86.503815 
	C97.530441,86.031898 98.995872,85.721931 100.810974,85.327438 
	C101.382133,85.442322 101.603622,85.641754 102.134323,86.165558 
	C102.022972,86.761726 101.602417,87.033524 100.994537,87.476624 
	C99.118782,88.065178 97.430336,88.482452 95.371933,88.586098 
	C95.000786,87.862938 94.999619,87.453400 94.998444,87.043861 
z"/>
<path fill="#5F8BA1" opacity="1.000000" stroke="none" 
	d="
M54.346718,258.716492 
	C54.175140,255.167267 54.233223,251.654144 54.311584,247.706284 
	C54.492916,250.899811 54.653969,254.528076 54.878410,258.602051 
	C54.941795,259.047760 54.960678,259.014374 54.960678,259.014374 
	C54.960678,259.014374 54.576385,258.752594 54.346718,258.716492 
z"/>
<path fill="#4D7D96" opacity="1.000000" stroke="none" 
	d="
M153.937683,158.043365 
	C154.984207,159.366455 155.820038,160.882065 156.729126,162.706833 
	C156.636856,163.232880 156.471313,163.449768 156.018402,163.958237 
	C155.031693,162.580887 154.332367,160.911972 153.481888,158.944824 
	C153.462845,158.509674 153.594925,158.372757 153.937683,158.043365 
z"/>
<path fill="#4F7F97" opacity="1.000000" stroke="none" 
	d="
M150.993469,17.978863 
	C150.050323,18.528206 149.107162,19.077547 147.626160,19.388897 
	C146.910156,18.935816 146.732025,18.720722 146.553894,18.505629 
	C147.819519,17.698772 149.085144,16.891914 150.672821,16.405739 
	C150.994415,17.143902 150.993942,17.561380 150.993469,17.978863 
z"/>
<path fill="#4A7C95" opacity="1.000000" stroke="none" 
	d="
M151.324554,17.951660 
	C150.993942,17.561380 150.994415,17.143902 150.999207,16.413343 
	C151.897339,15.954019 152.791183,15.807773 153.685013,15.661526 
	C153.803925,15.948219 153.922836,16.234913 154.041748,16.521606 
	C153.246384,16.989225 152.451019,17.456842 151.324554,17.951660 
z"/>
<path fill="#4F7F97" opacity="1.000000" stroke="none" 
	d="
M160.652100,66.077126 
	C160.981918,66.409775 161.030960,66.993629 161.141418,68.012985 
	C160.541946,69.451797 159.881042,70.455116 159.220139,71.458435 
	C158.842957,71.206581 158.465775,70.954735 158.088593,70.702888 
	C158.849503,69.244698 159.610413,67.786514 160.652100,66.077126 
z"/>
<path fill="#EDF1F3" opacity="1.000000" stroke="none" 
	d="
M104.998474,253.001465 
	C104.388329,252.456177 103.779709,251.909439 103.171082,251.362701 
	C103.454163,251.066544 103.737244,250.770370 104.020325,250.474213 
	C104.346626,251.086304 104.672928,251.698410 105.001144,252.653717 
	C105.003052,252.996948 105.000000,253.000000 104.998474,253.001465 
z"/>
<path fill="#4D7D96" opacity="1.000000" stroke="none" 
	d="
M167.680954,164.152496 
	C168.848328,164.239487 169.718307,164.567368 170.588303,164.895248 
	C170.028961,165.426956 169.469635,165.958679 168.910294,166.490387 
	C168.401398,165.791382 167.892487,165.092361 167.680954,164.152496 
z"/>
<path fill="#4F7F97" opacity="1.000000" stroke="none" 
	d="
M147.316788,19.502022 
	C146.559296,20.554533 145.573288,21.255926 144.587280,21.957321 
	C144.324631,21.692339 144.061981,21.427357 143.799316,21.162376 
	C144.498459,20.391190 145.197601,19.620005 146.225311,18.677223 
	C146.732025,18.720722 146.910156,18.935816 147.316788,19.502022 
z"/>
<path fill="#5F8BA1" opacity="1.000000" stroke="none" 
	d="
M54.923286,259.058380 
	C54.904781,259.069000 55.274071,259.109680 55.274071,259.109680 
	C55.274071,259.109680 55.150703,259.093903 55.055691,259.054138 
	C54.960678,259.014374 54.941795,259.047760 54.923286,259.058380 
z"/>
<path fill="#4A7C95" opacity="1.000000" stroke="none" 
	d="
M94.619835,87.047493 
	C94.999619,87.453400 95.000786,87.862938 94.998566,88.579597 
	C90.205734,91.903694 85.416298,94.920670 80.314865,98.091202 
	C79.527168,98.123894 79.051445,98.003021 78.212463,97.789856 
	C82.539131,92.417358 87.585167,88.566940 94.619835,87.047493 
z"/>
<path fill="#D3EBEC" opacity="1.000000" stroke="none" 
	d="
M66.855362,142.023636 
	C64.246254,135.433334 61.558044,128.872726 59.067616,122.237885 
	C58.093906,119.643791 59.225765,117.835205 62.093506,118.037796 
	C66.012444,118.314636 70.097160,118.409843 73.753952,119.641998 
	C77.646851,120.953712 78.188721,124.210846 75.960632,127.736565 
	C75.429054,128.577713 74.775955,129.342560 74.172241,130.137527 
	C69.977264,135.661606 70.203560,137.855255 74.797798,143.188934 
	C76.576416,145.253815 77.745865,147.843430 78.822510,150.555511 
	C75.116241,148.974426 71.780312,147.031815 68.444382,145.089203 
	C68.192863,144.975037 68.037971,144.782944 67.952942,143.999847 
	C67.569244,142.999023 67.212303,142.511337 66.855362,142.023636 
z"/>
<path fill="#EDF1F3" opacity="1.000000" stroke="none" 
	d="
M68.614845,145.410385 
	C71.780312,147.031815 75.116241,148.974426 78.816818,150.929184 
	C79.181450,152.955780 79.181450,154.970200 79.181450,156.984634 
	C78.718414,157.184525 78.255379,157.384415 77.792351,157.584305 
	C74.790001,153.633392 71.787659,149.682480 68.614845,145.410385 
z"/>
<path fill="#EDF1F3" opacity="1.000000" stroke="none" 
	d="
M66.911972,142.325165 
	C67.212303,142.511337 67.569244,142.999023 67.947166,143.809143 
	C67.634956,143.629944 67.301765,143.128311 66.911972,142.325165 
z"/>
<path fill="#F3F5F7" opacity="1.000000" stroke="none" 
	d="
M51.932880,212.751984 
	C51.795952,208.314163 53.168739,204.637878 57.262371,203.984680 
	C60.119404,203.528793 64.444527,204.137802 66.034515,206.024002 
	C67.848152,208.175522 68.203255,212.427139 67.647766,215.485580 
	C66.947334,219.341995 63.312164,220.599335 59.489796,220.334488 
	C55.045330,220.026550 52.680035,217.430969 51.932880,212.751984 
z"/>
<path fill="#EDF1F3" opacity="1.000000" stroke="none" 
	d="
M129.203812,205.723022 
	C130.179291,204.680359 131.138672,203.541382 132.106903,203.533783 
	C137.227036,203.493698 140.524643,207.436996 140.112366,212.782852 
	C139.703064,218.090256 136.289856,220.459000 129.191788,219.803360 
	C129.191788,215.305817 129.191788,210.727295 129.203812,205.723022 
z"/>
<path fill="#EDF1F3" opacity="1.000000" stroke="none" 
	d="
M196.015503,146.024139 
	C194.044647,148.131470 192.057205,150.210968 190.094604,152.313660 
	C188.754395,153.749542 187.448822,155.217773 186.095856,156.706650 
	C183.200699,152.469101 183.798279,149.216736 187.976532,145.829529 
	C190.918396,143.444641 193.884308,141.089417 197.322266,138.761139 
	C197.967850,138.954941 198.130661,139.108566 198.293457,139.262207 
	C197.338089,141.332672 196.382721,143.403137 195.736938,145.745193 
	C196.046524,146.016785 196.009491,146.006195 196.015503,146.024139 
z"/>
<path fill="#EDF1F3" opacity="1.000000" stroke="none" 
	d="
M197.583679,138.548828 
	C197.814438,138.025894 198.266556,137.755417 198.718674,137.484924 
	C198.715820,137.942444 198.712952,138.399963 198.501770,139.059845 
	C198.130661,139.108566 197.967850,138.954941 197.583679,138.548828 
z"/>
<path fill="#E7EDF0" opacity="1.000000" stroke="none" 
	d="
M92.023499,204.102539 
	C93.710098,209.474747 92.912865,210.161819 85.861603,209.550858 
	C85.861603,207.720032 85.861603,205.852020 85.861603,203.370651 
	C87.923615,203.553711 89.802559,203.720520 92.023499,204.102539 
z"/>
<path fill="#F3F5F7" opacity="1.000000" stroke="none" 
	d="
M131.094086,87.774353 
	C133.755722,83.294113 136.720444,83.734673 140.754379,88.811432 
	C136.523895,92.402443 134.447906,92.266251 131.094086,87.774353 
z"/>
</svg>